<svg width="71" height="18" viewBox="0 0 71 18" fill="none" xmlns="http://www.w3.org/2000/svg">
<path d="M21.2428 4.07053H24.692C24.7259 4.49161 24.7585 4.90671 24.805 5.46749C25.2899 4.92027 25.8919 4.48939 26.5662 4.20688C27.2405 3.92437 27.9698 3.7975 28.6999 3.83571C30.1634 3.91753 31.4937 4.3446 32.3339 5.74023C34.0043 3.70665 36.0717 3.47848 38.3394 4.18627C39.0633 4.39773 39.6942 4.84829 40.1291 5.46443C40.564 6.08058 40.7774 6.82594 40.7342 7.57889C40.8068 10.6589 40.755 13.7415 40.755 16.8787H37.2292V14.7273C37.2292 12.8434 37.2551 10.9589 37.2172 9.07298C37.1859 7.50705 36.4916 6.72475 35.215 6.69083C34.8957 6.67468 34.5766 6.72662 34.2789 6.84319C33.9812 6.95976 33.7117 7.1383 33.4883 7.36697C33.2648 7.59564 33.0925 7.86921 32.9829 8.16953C32.8732 8.46984 32.8285 8.79005 32.852 9.1089C32.8074 11.6693 32.84 14.2311 32.84 16.8614H29.1735V15.8948C29.1735 13.5785 29.1781 11.2615 29.1735 8.94525C29.1695 7.52302 28.5934 6.81655 27.3733 6.71211C26.7991 6.64084 26.2198 6.79748 25.7597 7.14843C25.2995 7.49937 24.995 8.01667 24.9119 8.58936C24.8074 9.29171 24.7605 10.0014 24.7716 10.7114C24.7536 12.7457 24.7657 14.7792 24.7657 16.874H21.2512C21.2426 12.6246 21.2428 8.40376 21.2428 4.07053Z" fill="white"/>
<path d="M8.40207 16.8945C8.30361 16.4781 8.20575 16.0643 8.14189 15.7949C8.18646 15.9838 6.90336 17.0302 4.83918 17.0302C2.58542 17.0302 0.315701 16.4315 0.0436268 14.0294C-0.0825535 13.2418 0.0669138 12.4347 0.466859 11.7445C0.866805 11.0543 1.49259 10.5232 2.23872 10.241C3.7022 9.69419 5.25502 9.37621 6.76241 8.9518C8.19063 8.55267 8.13794 7.19363 6.92059 6.53107C5.39059 5.69556 3.82669 6.79716 3.21868 8.2327C2.3825 8.0817 1.53714 7.93136 0.690981 7.7757C0.541972 7.74776 0.397518 7.6972 0.237866 7.65396C0.337698 6.74907 0.740315 5.90441 1.38024 5.25688C2.02016 4.60936 2.85975 4.19691 3.7634 4.08639C5.15808 3.85772 6.57988 3.84807 7.97753 4.05779C10.0716 4.3731 11.2265 5.84989 11.3036 8.00254C11.3934 10.408 11.407 14.4731 11.4729 16.8792L8.40207 16.8945ZM8.06946 11.0572C6.93858 11.3792 5.8185 11.6812 4.70958 12.0191C3.68315 12.3331 3.31257 12.844 3.50614 13.6709C3.71901 14.5869 4.45399 14.7352 5.22831 14.7106C7.03371 14.6547 8.19328 13.1766 8.06556 11.0572H8.06946Z" fill="white"/>
<path d="M66.7663 7.16965C66.2966 7.29471 65.9191 7.4078 65.5346 7.49428C65.059 7.60271 64.5773 7.68985 64.0525 7.79496C63.8689 7.24009 63.4848 6.77361 62.9757 6.48662C62.4666 6.19964 61.8688 6.11278 61.299 6.243C60.6957 6.32283 60.0422 6.61552 60.1141 7.30003C60.1775 7.53657 60.293 7.75599 60.4519 7.9423C60.6108 8.12861 60.8094 8.27713 61.033 8.37702C62.1732 8.83602 63.397 9.08282 64.5471 9.5192C66.8089 10.376 67.7031 12.0996 67.0086 14.3753C66.7796 15.0731 66.3492 15.6874 65.7714 16.1408C63.8063 17.6236 59.7778 17.4832 57.9271 15.8747C57.2649 15.2506 56.7517 14.4853 56.4261 13.6356C57.2011 13.4107 58.9002 12.9358 59.4297 12.7914C59.6072 13.4315 60.0264 13.9777 60.5987 14.3149C61.171 14.652 61.8517 14.7538 62.4976 14.5988C63.1043 14.5197 63.6485 14.3327 63.7809 13.615C63.8422 13.3067 63.7822 12.9868 63.6133 12.7218C63.4444 12.4568 63.1796 12.2673 62.8744 12.1927C62.1034 11.8807 61.2963 11.6605 60.5094 11.3945C60.0131 11.2242 59.5117 11.0618 59.0354 10.847C58.4166 10.6398 57.8758 10.2484 57.4857 9.72528C57.0956 9.20213 56.8746 8.57223 56.8526 7.92002C56.7617 7.20649 56.9036 6.48267 57.257 5.8562C57.6105 5.22973 58.1568 4.73406 58.8145 4.44292C59.7776 3.97475 60.8387 3.74358 61.9093 3.76869C62.9799 3.7938 64.029 4.07446 64.9691 4.58727C65.4477 4.84971 65.8591 5.21943 66.1709 5.66746C66.4827 6.11549 66.6864 6.62965 66.7663 7.16965Z" fill="white"/>
<path d="M20.1611 14.2324V16.8932C18.7482 16.9704 17.3272 17.0868 15.9941 16.526C14.4535 15.8781 13.9985 14.5157 13.9705 12.9791C13.9386 11.2835 13.9599 9.58648 13.9572 7.8895V6.79654H11.5477V4.15629C14.1168 3.58154 14.1168 3.58154 14.3769 0H17.562V4.00263H20.1478V6.75065H17.6006V8.82347C17.6006 9.96498 17.5913 11.1065 17.6006 12.2474C17.6166 13.7674 18.009 14.1579 19.5151 14.1958C19.7014 14.1998 19.8851 14.2157 20.1611 14.2324Z" fill="white"/>
<path d="M69.4752 14.241C69.3017 14.2409 69.1301 14.275 68.9698 14.3413C68.8095 14.4076 68.6637 14.5049 68.541 14.6275C68.4183 14.7501 68.3209 14.8957 68.2545 15.056C68.1881 15.2162 68.1542 15.388 68.1542 15.5614C68.1542 15.9118 68.2933 16.2478 68.541 16.4956C68.7888 16.7434 69.1248 16.8826 69.4752 16.8826C69.6487 16.8826 69.8204 16.8484 69.9806 16.782C70.1409 16.7156 70.2864 16.6182 70.409 16.4956C70.5317 16.3729 70.6289 16.2272 70.6952 16.0669C70.7615 15.9067 70.7957 15.7349 70.7956 15.5614C70.7956 15.2112 70.6567 14.8754 70.409 14.6277C70.1614 14.3801 69.8254 14.241 69.4752 14.241Z" fill="white"/>
<path d="M54.6441 13.7973C54.7132 13.3417 54.6269 12.8761 54.3996 12.4753C54.1722 12.0745 53.8168 11.7617 53.3904 11.5871C52.9639 11.4125 52.491 11.3863 52.0479 11.5127C51.6047 11.6391 51.217 11.9107 50.9468 12.284C50.7261 12.1722 50.4836 12.1098 50.2364 12.1012C49.9892 12.0926 49.7429 12.1379 49.515 12.2341C49.2871 12.3303 49.083 12.475 48.9167 12.6581C48.7503 12.8412 48.6258 13.0583 48.5519 13.2944C48.2798 13.3115 48.0146 13.3864 47.7737 13.5142C47.5328 13.642 47.3216 13.8197 47.1549 14.0355C46.9664 13.9602 46.7838 13.8712 46.6082 13.7694C45.1155 12.8986 44.5847 10.4154 45.4574 8.51816C45.8167 7.75457 46.4541 7.1571 47.2393 6.84796C48.0246 6.53882 48.8982 6.54138 49.6816 6.85511C50.2901 7.08591 50.8204 7.48504 51.2105 8.00591C51.6006 8.52678 51.8345 9.14789 51.8848 9.79671C51.8832 10.195 51.8609 10.5928 51.8183 10.9888C52.1401 10.8358 52.4925 10.7576 52.8489 10.7599C53.2053 10.7623 53.5564 10.8451 53.8763 11.0023C54.1961 11.1595 54.4762 11.3869 54.6958 11.6676C54.9154 11.9483 55.0688 12.275 55.1443 12.6232C55.3431 11.9416 55.437 11.2337 55.423 10.5238C55.3658 6.5265 53.0064 3.90686 48.4324 3.83369C44.2588 3.76717 41.5293 6.47195 41.5353 10.4859C41.5419 14.5204 44.3485 17.1461 48.5334 17.152C48.5673 17.152 48.5999 17.152 48.6331 17.152C48.6431 17.152 48.6517 17.152 48.6617 17.152H54.765C54.9878 17.1475 55.2076 17.0986 55.4113 17.0084C55.6151 16.9181 55.7988 16.7882 55.9518 16.6262C56.1049 16.4642 56.2241 16.2734 56.3026 16.0648C56.3812 15.8563 56.4176 15.6342 56.4095 15.4115C56.4014 15.1888 56.3487 14.97 56.2552 14.7677C56.1617 14.5654 56.0289 14.3838 55.8645 14.2334C55.7 14.083 55.5074 13.9668 55.2977 13.8916C55.0879 13.8164 54.8654 13.7837 54.6428 13.7953L54.6441 13.7973Z" fill="white"/>
</svg>
