<svg width="236" height="59" viewBox="0 0 236 59" fill="none" xmlns="http://www.w3.org/2000/svg">
<g clip-path="url(#clip0_35_2349)">
<path fill-rule="evenodd" clip-rule="evenodd" d="M3.38188 37.968C3.40367 38.7464 3.48457 39.522 3.62388 40.288C3.64194 40.3944 3.63885 40.5033 3.6148 40.6085C3.59074 40.7137 3.54619 40.8131 3.48368 40.901C3.42118 40.989 3.34195 41.0638 3.25053 41.1211C3.1591 41.1784 3.05728 41.2171 2.95088 41.235C2.82041 41.2562 2.6868 41.2462 2.56088 41.206C2.04447 41.1239 1.55692 40.9134 1.14288 40.594C0.756068 40.2296 0.486604 39.7583 0.368881 39.24C0.0468807 38.096 -0.646119 34.633 1.48088 34.681C1.70938 34.6874 1.93388 34.7425 2.13943 34.8425C2.34497 34.9425 2.52683 35.0852 2.67288 35.261C3.16117 36.0599 3.40744 36.9831 3.38188 37.919M61.7619 23.419C61.7619 23.419 59.6989 6.45804 45.1049 1.78604C39.5381 -0.218923 33.5048 -0.543713 27.7549 0.852044C21.1498 1.88629 14.9208 4.59849 9.66388 8.72904C5.61217 12.1256 2.72752 16.7072 1.41588 21.829C0.690845 24.8499 0.608399 27.9893 1.17388 31.044C1.36688 32.204 3.00988 33.283 3.02688 31.382C3.21988 10.309 20.5059 6.45804 21.1179 6.28104L21.7619 6.13604C22.0391 6.08768 22.3226 6.08768 22.5999 6.13604C22.6479 6.14875 22.6903 6.17698 22.7206 6.21632C22.7509 6.25566 22.7673 6.3039 22.7673 6.35354C22.7673 6.40319 22.7509 6.45143 22.7206 6.49077C22.6903 6.53011 22.6479 6.55833 22.5999 6.57104C21.2149 7.23104 15.8179 9.07104 12.9339 11.629C8.64349 15.1743 5.76902 20.1425 4.83388 25.629C4.49664 29.6898 4.55525 33.7737 5.00888 37.823C5.55438 40.5738 6.67932 43.1768 8.30888 45.459C11.4463 49.2139 15.441 52.1587 19.9559 54.045C21.7227 54.5461 23.521 54.9283 25.3389 55.189C25.4287 55.189 25.5148 55.2247 25.5782 55.2882C25.6417 55.3517 25.6774 55.4378 25.6774 55.5275C25.6774 55.6173 25.6417 55.7034 25.5782 55.7669C25.5148 55.8304 25.4287 55.866 25.3389 55.866C23.4389 56.172 18.8949 55.125 15.0609 53.256C12.496 51.8979 10.2155 50.0603 8.34288 47.843C6.23288 45.572 5.12088 43.187 4.33188 43.348C3.04288 43.606 4.13888 46.36 4.70288 47.424C6.60427 50.6493 9.27825 53.3508 12.4839 55.285C17.0747 57.7664 22.279 58.8843 27.4839 58.507C39.4049 57.492 46.8149 51.757 50.0369 47.23C53.8445 42.6388 55.985 36.8934 56.1099 30.93C56.1099 29.641 56.2099 20.668 53.2589 15.981C52.5989 14.918 50.5849 10.536 43.0129 6.81504C41.3686 5.95036 39.5759 5.40379 37.7289 5.20404C36.8429 5.20404 35.0389 5.10404 35.1999 4.04404C35.3289 3.30304 39.7429 4.28604 40.1939 4.41504C43.8416 5.65252 47.2513 7.50379 50.2759 9.88904C59.0389 16.589 58.1529 30.831 58.1529 30.831C57.7819 45.942 48.9709 52.337 42.6399 56.123C42.5109 56.123 42.0599 56.767 42.2049 56.993C42.3499 57.219 42.6559 57.202 42.9619 57.17C45.3989 56.929 47.7989 55.109 49.7919 53.529C60.2309 45.309 60.7629 38.902 61.3589 36.486C62.1224 32.2342 62.285 27.8961 61.8419 23.599" fill="white"/>
<path fill-rule="evenodd" clip-rule="evenodd" d="M45.7966 27.5941L45.0076 27.2881C44.2186 26.9661 42.2526 26.4501 40.6746 26.0311L38.6606 25.4991C38.3512 24.6099 38.1036 23.7004 37.9196 22.7771C37.8196 22.3581 37.7586 22.0361 37.7106 21.8911C37.5656 21.3911 37.3886 21.1181 36.9056 21.1661L30.5746 22.7771L25.1746 24.1771C24.9656 24.1771 24.8366 24.3221 23.1606 26.9481C22.6606 27.7371 22.0486 28.7201 21.9366 28.8171C21.6818 28.9621 21.4183 29.0914 21.1476 29.2041C20.0846 29.7041 18.1186 30.6221 16.4116 31.5881C14.3802 32.6977 12.4551 33.9918 10.6606 35.4541C10.6123 35.5373 10.5869 35.6318 10.5869 35.7281C10.5869 35.8243 10.6123 35.9188 10.6606 36.0021C10.7502 36.1115 10.8685 36.1936 11.0023 36.2392C11.1361 36.2848 11.28 36.292 11.4176 36.2601H11.6436C12.0146 36.1601 23.4196 33.8761 29.9596 32.7961C31.5706 32.5221 33.6486 32.2641 36.0976 32.0071C42.0906 31.3791 48.1156 31.0241 48.4696 31.0731C48.6472 31.0873 48.8257 31.0597 48.9906 30.9925C49.1556 30.9253 49.3025 30.8203 49.4196 30.6861C49.6226 30.461 49.732 30.167 49.7256 29.8641C49.7256 29.2841 48.4366 28.6881 45.7946 27.6571" fill="#C6102E"/>
<path fill-rule="evenodd" clip-rule="evenodd" d="M222.758 39.4501H223.435L224.079 41.2501L224.707 39.4501H225.384V41.8021H224.947V39.8371L224.254 41.8021H223.916L223.239 39.8371V41.8021H222.788L222.758 39.4501ZM220.567 39.4501H222.42V39.8371H221.711V41.8021H221.276V39.8371H220.567V39.4501Z" fill="white"/>
<path fill-rule="evenodd" clip-rule="evenodd" d="M81.61 32.233C82.625 31.121 84.397 31.333 85.96 30.896C88.699 30.139 92.935 28.157 92.823 24.678C92.723 21.649 89.794 19.845 86.379 19.346C83.963 27.626 79.935 34.988 76.037 42.189C74.861 44.364 73.717 47.589 70.673 47.827C69.173 46.538 69.69 44.605 69.916 43.316C70.7857 39.3186 72.1608 35.4481 74.008 31.798C76.1937 27.1784 79.0488 22.9065 82.481 19.12C81.3539 19.3598 80.1788 19.2122 79.146 18.701C78.228 14.69 82.368 13.868 85.332 13.659C92.01 13.24 98.748 17.042 98.587 23.937C98.442 29.527 92.449 33.184 86.779 33.603C85.168 33.732 82.719 33.925 81.608 32.185M179.762 27.239C180.777 25.239 181.373 23.453 182.549 20.989C183.032 19.91 185.771 14.964 183.161 14.336H182.968C178.618 15.56 175.493 23.921 172.787 27.385C169.468 27.304 165.425 27.031 165.587 29.479C165.732 31.479 168.648 31.879 170.323 32.846C169.711 34.795 165.99 42.592 169.163 44.59C172.336 46.588 174.221 41.803 174.978 39.757C175.708 37.4113 176.624 35.1274 177.717 32.927C180.327 32.734 183.226 31.827 185.369 31.799C184.805 34.087 183.533 37.276 184.902 40.224C187.335 41.835 189.155 40.079 189.993 38.5C191.346 35.987 191.604 31.525 192.554 29.511C194.165 28.561 196.581 28.448 196.954 26.402C196.068 25.516 194.666 26.402 193.454 26.402C193.934 24.68 194.51 22.986 195.178 21.328C195.742 19.717 196.789 17.591 195.5 15.851C192.777 16.302 191.634 18.783 190.474 20.684C189.314 22.585 188.186 25.098 186.93 27.128C184.514 27.128 182.355 27.402 179.761 27.273M112.216 15.028C109.252 14.061 104.387 16.381 102.808 18.685C101.793 20.151 101.455 23.051 103.408 23.518C105.857 24.195 107.725 21.375 108.756 20.296C110.367 18.556 111.756 17.348 112.22 15.028M225.662 19.2C223.262 18.572 222.262 20.408 220.829 22.1C219.685 23.469 218.993 24.839 218.348 25.016C216.737 25.499 214.24 24.001 212.871 24.404C212.529 24.5206 212.228 24.7356 212.008 25.0222C211.787 25.3088 211.656 25.6542 211.631 26.015C211.631 28.109 214.131 28.431 216.174 29.237C215.026 31.4833 214.114 33.8426 213.452 36.277C212.852 38.726 212.212 42.318 213.581 44.895C215.192 44.621 215.643 42.64 216.191 41.383C217.914 37.0319 219.959 32.8155 222.31 28.769C225.929 28.3901 229.509 27.7002 233.01 26.707C234.089 26.433 235.62 26.546 236.01 25.354C235.221 24.42 233.71 24.754 232.466 24.742C229.518 24.742 226.328 24.903 224.331 24.871C225.024 23.371 227.053 21.649 225.604 19.201M146.11 33.312C146.835 30.364 149.477 29.236 152.554 28.479C153.376 28.479 152.2 29.365 152.28 29.848C151.996 30.3957 151.847 31.0032 151.845 31.62C149.96 32.2 148.623 33.328 146.158 33.344M130.81 35.938C132.582 34.327 134.032 32.716 136.01 30.88C137.363 29.591 141.02 27.38 139.973 24.646C139.393 23.146 136.751 22.846 134.963 22.846C132.337 22.846 128.986 23.651 126.296 23.555C125.346 23.555 124.496 22.75 123.751 23.346C121.302 28.485 129.051 28.179 132.851 27.728C130.096 30.708 125.251 32.561 122.851 35.879C122.41 36.3789 122.101 36.9812 121.951 37.6311C121.802 38.2809 121.818 38.9578 121.997 39.6C123.012 40.422 124.188 39.858 125.316 39.809C130.407 39.664 136.238 41.339 140.024 39.535C140.733 39.0471 141.406 38.5087 142.038 37.924C146.677 39.406 149.98 36.764 152.686 35.25C154.297 37.457 161.015 37.602 161.562 34.735C160.499 32.935 157.599 33.946 157.068 31.948C156.537 29.95 160.032 26.938 157.825 24.715C156.971 24.115 156.037 25.037 155.505 24.715C148.852 23.877 141.905 27.502 140.233 32.431C139.918 33.7936 139.962 35.2148 140.362 36.555C137.543 37.715 133.918 36.313 130.809 35.895M103.758 25.548C103.505 25.3659 103.19 25.2917 102.882 25.3417C102.574 25.3918 102.298 25.562 102.116 25.815C102.092 25.849 102.071 25.883 102.05 25.915C99.31 29.237 93.11 34.377 93.674 39.777C93.883 41.71 94.974 44.159 97.46 43.337C98.201 42.693 97.895 41.823 98.233 40.985C100.233 36.152 105.965 32.721 103.758 25.552M122.123 27.052C119.884 26.263 116.098 26.778 112.763 26.601C109.783 26.44 105.9 25.344 106.094 27.922C106.32 30.967 112.409 30.644 115.594 30.338C113.355 32.416 110.761 34.446 108.152 36.556C105.929 38.409 101.902 40.599 103.013 44.74C105.494 46.158 108.442 44.74 111.728 44.611C117.914 44.385 123.198 46.222 129.078 45.723C131.378 45.53 134.99 44.756 134.813 42.243C133.513 41.47 132.397 42.243 131.14 42.404C125.099 43.048 119.396 39.665 112.518 40.116C114.29 38.263 116.626 36.427 118.656 34.478C120.686 32.529 123.247 30.478 122.119 27.052M199.444 38.022C200.233 35.722 201.216 30.386 197.978 29.581C197.385 29.452 196.772 29.4528 196.18 29.5835C195.587 29.7142 195.03 29.9716 194.547 30.338C194.547 31.546 195.884 31.288 195.884 32.513C195.062 34.962 191.584 39.553 194.563 42.291C197.237 44.756 201.619 41.791 202.972 40.791C203.987 40.018 204.872 38.991 205.727 38.842C206.033 42.064 207.241 44.158 210.077 44.561C210.915 43.643 210.19 42.596 210.206 41.42C210.362 39.4346 210.718 37.4699 211.269 35.556C211.704 33.623 212.88 31.48 211.369 29.676C209.758 29.305 208.969 30.723 208.228 31.609C205.979 34.5541 202.932 36.7908 199.448 38.053" fill="white"/>
</g>
<defs>
<clipPath id="clip0_35_2349">
<rect width="236" height="58.578" fill="white"/>
</clipPath>
</defs>
</svg>
