<?xml version="1.0" encoding="utf-8"?>
<!-- Generator: Adobe Illustrator 23.0.5, SVG Export Plug-In . SVG Version: 6.00 Build 0)  -->
<svg version="1.1" id="Слой_1" xmlns="http://www.w3.org/2000/svg" xmlns:xlink="http://www.w3.org/1999/xlink" x="0px" y="0px"
	 viewBox="0 0 27 26" style="enable-background:new 0 0 27 26;" xml:space="preserve">
<style type="text/css">
	.st0{fill:#FFFFFF;}
</style>
<path class="st0" d="M13.5,25.1c-2.2,0-4.2-0.2-6.2-0.4c-1.4-0.2-2.7-0.8-3.7-1.8c-1-1-1.6-2.3-1.8-3.8c0,0,0,0,0,0
	c-0.2-1.8-0.4-4-0.4-6.1c0-2.2,0.2-4.3,0.4-6.1C2,5.5,2.6,4.1,3.6,3.1c1-1,2.3-1.7,3.7-1.8c1.9-0.2,4-0.4,6.2-0.4
	c2.1,0,4.2,0.2,6.2,0.4c1.4,0.2,2.7,0.8,3.8,1.8c1,1,1.6,2.3,1.8,3.8c0.2,1.8,0.4,4,0.4,6.1c0,2.2-0.2,4.3-0.4,6.1
	c-0.2,1.4-0.8,2.7-1.8,3.8c-1,1-2.3,1.7-3.7,1.8C17.8,24.9,15.7,25.1,13.5,25.1z M2.8,19c0.1,1.2,0.7,2.3,1.5,3.2
	c0.8,0.8,2,1.4,3.2,1.5c1.9,0.2,3.9,0.4,6,0.4c2.1,0,4.2-0.2,6-0.4c1.2-0.1,2.3-0.7,3.2-1.5c0.8-0.8,1.4-2,1.5-3.2
	c0.2-1.8,0.4-3.9,0.4-6s-0.2-4.2-0.4-6c-0.1-1.2-0.7-2.3-1.5-3.2c-0.8-0.8-2-1.4-3.2-1.5c-1.9-0.2-4-0.4-6-0.4c-2.1,0-4.2,0.2-6,0.4
	C6.3,2.4,5.2,3,4.3,3.8S3,5.8,2.8,7c-0.2,1.8-0.4,3.9-0.4,6C2.4,15.1,2.6,17.2,2.8,19z"/>
<path class="st0" d="M9.5,16.8c-0.1,0-0.1,0-0.2,0c-0.4-0.1-0.6-0.5-0.8-1.1c-0.2,0.6-0.4,1-0.8,1.1c-0.3,0-0.5,0-0.7-0.2
	c-0.2-0.2-0.4-0.4-0.4-0.7c0-0.4-0.1-0.9-0.1-1.3c0-0.4,0-0.9,0.1-1.3c0-0.3,0.3-0.5,0.5-0.5c0.3,0,0.5,0.3,0.5,0.5c0,0,0,0,0,0
	c0,0.4-0.1,0.8-0.1,1.2c0,0.3,0,0.6,0,0.9c0-0.1,0-0.1,0.1-0.2c0.2-0.6,0.4-0.9,0.6-1.1c0.2-0.1,0.4-0.1,0.5,0
	c0.3,0.2,0.4,0.5,0.6,1.1c0,0.1,0,0.1,0.1,0.2c0-0.3,0-0.6,0-0.9c0-0.4,0-0.8-0.1-1.2l1-0.1c0,0.4,0.1,0.9,0.1,1.3
	c0,0.4,0,0.9-0.1,1.3c0,0.3-0.2,0.6-0.4,0.8C9.9,16.7,9.7,16.8,9.5,16.8z"/>
<path class="st0" d="M14.5,16.8c-0.1,0-0.1,0-0.2,0c-0.4-0.1-0.6-0.5-0.8-1.1c-0.2,0.6-0.4,1-0.8,1.1c-0.3,0-0.5,0-0.7-0.2
	c-0.2-0.2-0.4-0.4-0.4-0.7c0-0.4-0.1-0.9-0.1-1.3c0-0.4,0-0.9,0.1-1.3c0-0.3,0.3-0.5,0.5-0.5c0.3,0,0.5,0.3,0.5,0.5c0,0,0,0,0,0
	c0,0.4-0.1,0.8-0.1,1.2c0,0.3,0,0.6,0,0.9c0-0.1,0-0.1,0.1-0.2c0.2-0.6,0.4-0.9,0.6-1.1c0.2-0.1,0.4-0.1,0.5,0
	c0.3,0.2,0.4,0.5,0.6,1.1c0,0.1,0,0.1,0.1,0.2c0-0.3,0-0.6,0-0.9c0-0.4,0-0.8-0.1-1.2c0-0.3,0.2-0.5,0.5-0.5c0.3,0,0.5,0.2,0.5,0.5
	c0,0.4,0.1,0.9,0.1,1.3c0,0.4,0,0.9-0.1,1.3c0,0.3-0.2,0.6-0.4,0.8C14.9,16.7,14.7,16.8,14.5,16.8z"/>
<path class="st0" d="M19.5,16.8c-0.1,0-0.1,0-0.2,0c-0.4-0.1-0.6-0.5-0.8-1.1c-0.2,0.6-0.4,1-0.8,1.1c-0.3,0-0.5,0-0.7-0.2
	c-0.2-0.2-0.4-0.4-0.4-0.7c0-0.4-0.1-0.9-0.1-1.3c0-0.4,0-0.9,0.1-1.3c0-0.3,0.3-0.5,0.5-0.5c0.3,0,0.5,0.3,0.5,0.5l0,0
	c0,0.4-0.1,0.8-0.1,1.2c0,0.3,0,0.6,0,0.9c0-0.1,0-0.1,0.1-0.2c0.2-0.6,0.4-0.9,0.6-1.1c0.2-0.1,0.4-0.1,0.5,0
	c0.3,0.2,0.4,0.5,0.6,1.1c0,0.1,0,0.1,0.1,0.2c0-0.3,0-0.6,0-0.9c0-0.4,0-0.8-0.1-1.2c0-0.3,0.2-0.5,0.5-0.5c0.3,0,0.5,0.2,0.5,0.5
	c0,0.4,0.1,0.9,0.1,1.3c0,0.4,0,0.9-0.1,1.3c0,0.3-0.2,0.6-0.4,0.8C19.9,16.7,19.7,16.8,19.5,16.8z"/>
<path class="st0" d="M24.8,7.9H2.3C2.1,7.9,2,7.9,1.9,7.8C1.8,7.7,1.8,7.5,1.8,7.4l0.1-0.5C2,5.5,2.6,4.1,3.6,3.1S6,1.5,7.4,1.3
	c1.9-0.2,4-0.4,6.2-0.4c2.2,0,4.2,0.2,6.2,0.4c1.4,0.2,2.7,0.8,3.8,1.8c1,1,1.6,2.3,1.8,3.8c0,0.2,0,0.3,0.1,0.5
	c0,0.1,0,0.3-0.1,0.4C25.1,7.9,25,7.9,24.8,7.9z M2.8,6.9h21.4c-0.1-1.2-0.7-2.3-1.5-3.1c-0.8-0.8-2-1.4-3.2-1.5
	c-1.9-0.2-3.9-0.4-6-0.4c-2.1,0-4.1,0.2-6,0.4C6.3,2.4,5.2,3,4.3,3.8C3.5,4.7,3,5.8,2.8,6.9z"/>
</svg>
