<?xml version="1.0" encoding="utf-8"?>
<!-- Generator: Adobe Illustrator 23.0.5, SVG Export Plug-In . SVG Version: 6.00 Build 0)  -->
<svg version="1.1" id="Слой_1" xmlns="http://www.w3.org/2000/svg" xmlns:xlink="http://www.w3.org/1999/xlink" x="0px" y="0px"
	 viewBox="0 0 34 34" style="enable-background:new 0 0 34 34;" xml:space="preserve">
<style type="text/css">
	.st0{fill:#FFFFFF;}
</style>
<path class="st0" d="M29.8,10c0,0-0.1,0-0.1,0c-4.7-0.5-9.4-0.7-14-0.7c-2.7,0-5.5,0.1-8.3,0.4L4.4,10C3.6,10,2.8,9.4,2.8,8.6
	C2.7,7.8,3.3,7.1,4.1,7L7,6.7c2.8-0.3,5.7-0.4,8.6-0.4c4.7,0,9.6,0.2,14.3,0.7c0.8,0.1,1.4,0.8,1.3,1.6C31.2,9.4,30.5,10,29.8,10z"
	/>
<path class="st0" d="M22,8.5c-0.7,0-1.4-0.5-1.5-1.3l-0.3-1.8C20,4.3,20,4.3,18.9,4.3h-3.7c-0.9,0-1.1,0.2-1.1,0.2
	c-0.1,0.1-0.2,0.6-0.2,0.9l-0.3,1.9c-0.1,0.8-0.9,1.4-1.7,1.2c-0.8-0.1-1.4-0.9-1.2-1.7l0.3-1.9c0.2-1.3,0.6-3.6,4.3-3.6h3.7
	c3.7,0,4.1,2.4,4.3,3.6l0.3,1.8c0.1,0.8-0.4,1.6-1.2,1.7C22.1,8.5,22,8.5,22,8.5z"/>
<path class="st0" d="M21.5,32.7h-9.1c-5.4,0-5.6-3.1-5.7-5.3L5.8,13c-0.1-0.8,0.6-1.5,1.4-1.6c0.8,0,1.5,0.6,1.6,1.4l0.9,14.3
	c0.2,2.2,0.2,2.5,2.7,2.5h9.1c2.6,0,2.6-0.4,2.7-2.6l0.9-14.3c0.1-0.8,0.8-1.5,1.6-1.4c0.8,0.1,1.5,0.8,1.4,1.6l-0.9,14.3
	C27.1,29.6,26.9,32.7,21.5,32.7z"/>
<path class="st0" d="M19.4,24.9h-4.7c-0.8,0-1.5-0.7-1.5-1.5s0.7-1.5,1.5-1.5h4.7c0.8,0,1.5,0.7,1.5,1.5S20.2,24.9,19.4,24.9z"/>
<path class="st0" d="M20.5,19.2h-7.1c-0.8,0-1.5-0.7-1.5-1.5s0.7-1.5,1.5-1.5h7.1c0.8,0,1.5,0.7,1.5,1.5S21.4,19.2,20.5,19.2z"/>
</svg>
