<svg width="27" height="26" viewBox="0 0 27 26" fill="none" xmlns="http://www.w3.org/2000/svg">
<g clip-path="url(#clip0_24_836)">
<path d="M26.8035 9.59746L25.201 2.96025C24.9307 1.87414 23.9602 1.11557 22.841 1.11557H4.86187C3.75377 1.11557 2.78568 1.8648 2.50673 2.94126L0.834406 9.59264C0.823793 9.63494 0.818359 9.67836 0.818359 9.72198C0.818359 10.9698 1.45008 12.0725 2.4102 12.7281V22.4668C2.4102 23.7999 3.49473 24.8844 4.82779 24.8844H22.8092C24.1421 24.8844 25.2266 23.7999 25.2266 22.4668V12.7257C26.1868 12.0699 26.8184 10.9683 26.8184 9.72198C26.8184 9.68003 26.8134 9.63819 26.8035 9.59746ZM22.8411 2.1768C23.4719 2.1768 24.0189 2.60437 24.1704 3.21294L25.6138 9.19141H20.5311L19.6101 2.1768H22.8411ZM14.349 2.1768H18.5397L19.4608 9.19136H14.349V2.1768ZM19.4792 10.2526C19.2316 11.4196 18.1846 12.2986 16.9339 12.2986C15.691 12.2986 14.6504 11.4196 14.4043 10.2526H19.4792ZM9.03339 2.1768H13.2877V9.19136H8.16392L9.03339 2.1768ZM13.2322 10.2526C12.9853 11.4196 11.9417 12.2986 10.6951 12.2986C9.44447 12.2986 8.39746 11.4196 8.1498 10.2526H13.2322ZM3.53505 3.20375C3.69177 2.59904 4.23736 2.1768 4.86192 2.1768H7.96409L7.09462 9.19136H2.02954L3.53505 3.20375ZM1.93524 10.2526H6.97767C6.73234 11.4196 5.69514 12.2986 4.45618 12.2986C3.21737 12.2986 2.18062 11.4195 1.93524 10.2526ZM24.1653 22.4668C24.1653 23.2148 23.5569 23.8233 22.8091 23.8233H4.82779C4.07989 23.8232 3.47143 23.2147 3.47143 22.4668V13.2233C3.78485 13.3116 4.11488 13.3598 4.45618 13.3598C5.77156 13.3598 6.92618 12.658 7.56526 11.6093C8.20855 12.6581 9.37089 13.3598 10.6951 13.3598C12.0163 13.3598 13.1759 12.658 13.8178 11.6093C14.4583 12.6581 15.6155 13.3598 16.9339 13.3598C18.2582 13.3598 19.4205 12.658 20.0638 11.6093C20.7029 12.6581 21.8575 13.3598 23.1729 13.3598C23.5169 13.3598 23.8496 13.311 24.1653 13.2217V22.4668ZM23.1729 12.2986C21.934 12.2986 20.8968 11.4196 20.6514 10.2526H25.7013C25.4553 11.4196 24.4154 12.2986 23.1729 12.2986Z" fill="white"/>
<path d="M22.503 18.1087H20.1262C19.8332 18.1087 19.5956 18.3463 19.5956 18.6393C19.5956 18.9324 19.8332 19.1699 20.1262 19.1699H21.9059C21.6692 20.0942 20.8292 20.7795 19.8322 20.7795C18.6521 20.7795 17.692 19.8194 17.692 18.6393C17.692 17.4592 18.6521 16.4991 19.8322 16.4991C20.3404 16.4991 20.833 16.6803 21.2192 17.0093C21.4424 17.1993 21.7772 17.1726 21.9673 16.9494C22.1573 16.7263 22.1305 16.3914 21.9074 16.2014C21.3294 15.709 20.5924 15.4379 19.8323 15.4379C18.067 15.4379 16.6309 16.874 16.6309 18.6393C16.6309 20.4045 18.067 21.8407 19.8323 21.8407C21.5975 21.8407 23.0337 20.4045 23.0337 18.6393C23.0336 18.3463 22.7961 18.1087 22.503 18.1087Z" fill="white"/>
</g>
<defs>
<clipPath id="clip0_24_836">
<rect width="26" height="26" fill="white" transform="translate(0.818359)"/>
</clipPath>
</defs>
</svg>
