<?xml version="1.0" encoding="utf-8"?>
<!-- Generator: Adobe Illustrator 23.0.5, SVG Export Plug-In . SVG Version: 6.00 Build 0)  -->
<svg version="1.1" id="Слой_1" xmlns="http://www.w3.org/2000/svg" xmlns:xlink="http://www.w3.org/1999/xlink" x="0px" y="0px"
	 viewBox="0 0 18 18" style="enable-background:new 0 0 18 18;" xml:space="preserve">
<path d="M15.9,17.1c-0.3,0-0.6-0.1-0.9-0.4L1.3,3c-0.5-0.5-0.5-1.3,0-1.8s1.3-0.5,1.8,0L16.7,15c0.5,0.5,0.5,1.3,0,1.8
	C16.5,17,16.2,17.1,15.9,17.1z"/>
<path d="M2.1,17.1c-0.3,0-0.6-0.1-0.9-0.4c-0.5-0.5-0.5-1.3,0-1.8L15,1.3c0.5-0.5,1.3-0.5,1.8,0s0.5,1.3,0,1.8L3,16.7
	C2.8,17,2.5,17.1,2.1,17.1z"/>
</svg>
