<?xml version="1.0" encoding="utf-8"?>
<!-- Generator: Adobe Illustrator 23.0.5, SVG Export Plug-In . SVG Version: 6.00 Build 0)  -->
<svg version="1.1" id="Слой_1" xmlns="http://www.w3.org/2000/svg" xmlns:xlink="http://www.w3.org/1999/xlink" x="0px" y="0px"
	 viewBox="0 0 43 35" style="enable-background:new 0 0 43 35;" xml:space="preserve">
<style type="text/css">
	.st0{fill:#FFFFFF;}
</style>
<path class="st0" d="M21.5,34.9c-7.4,0-12.5-0.2-15.4-0.4c-2.9-0.2-5.1-2.3-5.4-5.2l0,0C0.4,26,0.3,22,0.3,17.6
	c0-4.4,0.2-8.4,0.5-11.8C1,3,3.2,0.9,6.1,0.7c3-0.2,8.1-0.4,15.4-0.4c7.4,0,12.5,0.2,15.4,0.4C39.8,0.9,42,3,42.3,5.8
	c0.3,3.4,0.5,7.3,0.5,11.8c0,4.4-0.2,8.4-0.5,11.8c-0.3,2.8-2.5,5-5.4,5.2C34,34.7,28.9,34.9,21.5,34.9z M21.5,1.8
	C14.2,1.8,9.1,2,6.2,2.2C4,2.3,2.4,3.9,2.2,6c-0.3,3.3-0.5,7.2-0.5,11.6c0,4.4,0.2,8.3,0.5,11.6l0,0c0.2,2.1,1.8,3.7,4,3.8
	c2.9,0.2,8,0.4,15.3,0.4c7.3,0,12.4-0.2,15.3-0.4c2.1-0.1,3.8-1.7,4-3.8c0.3-3.3,0.5-7.2,0.5-11.6c0-4.4-0.2-8.3-0.5-11.6
	c-0.2-2.1-1.8-3.7-4-3.8C33.9,2,28.9,1.8,21.5,1.8z"/>
<path class="st0" d="M31.6,29.1c-0.2,0-0.4,0-0.6,0c-0.9,0-1.9,0-2.9-0.1c-1.4-0.1-2.5-1.2-2.5-2.6c0-0.6,0-1.3,0-1.9
	c0-1.5,1.1-2.6,2.5-2.7c0,0,0,0,0,0c1,0,2.1-0.1,3.1-0.1c1,0,2.1,0,3.1,0.1c1.5,0.1,2.5,1.2,2.5,2.7c0,0.6,0,1.3,0,1.9
	c0,1.5-1.1,2.6-2.5,2.7C33.4,29.1,32.5,29.1,31.6,29.1z M31.3,27.6c1,0,2,0,3-0.1c0.7,0,1.1-0.5,1.1-1.2c0-0.6,0-1.2,0-1.9
	c0-0.7-0.4-1.2-1.1-1.2c-1,0-2-0.1-3-0.1c-1,0-2,0-3,0.1c-0.7,0-1.1,0.5-1.1,1.2c0,0.6,0,1.3,0,1.9c0,0.7,0.4,1.1,1.1,1.2
	C29.2,27.6,30.2,27.6,31.3,27.6z"/>
<path class="st0" d="M1.2,9.5c-0.4,0-0.7-0.3-0.7-0.7C0.5,8.4,0.8,8,1.2,8c3-0.1,9.5-0.2,20.3-0.2c10.9,0,17.4,0.1,20.3,0.2
	c0.4,0,0.7,0.4,0.7,0.8c0,0.4-0.3,0.7-0.8,0.7c0,0,0,0,0,0c-2.9-0.1-9.4-0.2-20.2-0.2C10.8,9.3,4.2,9.4,1.2,9.5
	C1.3,9.5,1.2,9.5,1.2,9.5z"/>
<path class="st0" d="M21.5,17.6C10.7,17.6,4,17.5,1,17.4c-0.4,0-0.7-0.4-0.7-0.8s0.4-0.7,0.8-0.7c3,0.1,9.7,0.2,20.5,0.2
	C32.4,16.1,39,16,42,15.9c0.4,0,0.8,0.3,0.8,0.7c0,0.4-0.3,0.8-0.7,0.8C39.1,17.5,32.4,17.6,21.5,17.6z"/>
</svg>
