<?xml version="1.0" encoding="utf-8"?>
<!-- Generator: Adobe Illustrator 23.0.5, SVG Export Plug-In . SVG Version: 6.00 Build 0)  -->
<svg version="1.1" id="Слой_1" xmlns="http://www.w3.org/2000/svg" xmlns:xlink="http://www.w3.org/1999/xlink" x="0px" y="0px"
	 viewBox="0 0 28 28" style="enable-background:new 0 0 28 28;" xml:space="preserve">
<style type="text/css">
	.st0{fill:#FFFFFF;}
</style>
<path class="st0" d="M12,26.2C12,26.2,12,26.2,12,26.2c-1.5-0.1-2.9-0.2-4.3-0.4C6.3,25.6,4.9,25,3.9,24c-1-1-1.7-2.4-1.8-3.8
	c-0.2-1.8-0.4-4-0.4-6.2c0-2.2,0.2-4.3,0.4-6.2c0.2-1.4,0.8-2.8,1.8-3.8c1-1,2.4-1.7,3.8-1.8c1.9-0.2,4-0.4,6.2-0.4
	c2.1,0,4.2,0.2,6.2,0.4c1.4,0.2,2.8,0.8,3.8,1.8c1,1,1.7,2.4,1.8,3.8c0.2,1.8,0.4,4,0.4,6.2c0,2.2-0.2,4.3-0.4,6.2
	c-0.2,1.4-0.8,2.8-1.8,3.8c-1,1-2.3,1.7-3.8,1.8c-1.1,0.1-2.3,0.2-3.4,0.3c-0.1,0-0.3,0-0.4-0.1c-0.1-0.1-0.2-0.2-0.2-0.4v-6
	c0-0.3,0.2-0.5,0.5-0.5H20v-3.7h-3.2c-0.3,0-0.5-0.2-0.5-0.5v-1.9c0-1.3,1.1-2.4,2.4-2.4H20V8.4c0-0.4-0.1-0.7-0.4-1S19,7,18.6,7
	h-0.9C16.3,7,15,7.6,14,8.5c-1,1-1.5,2.2-1.5,3.6V15c0,0.3-0.2,0.5-0.5,0.5H8.8v3.7H12c0.3,0,0.5,0.2,0.5,0.5v6
	c0,0.1-0.1,0.3-0.2,0.4C12.3,26.1,12.2,26.2,12,26.2z M13.9,2.8c-2.1,0-4.2,0.2-6.1,0.4C6.6,3.4,5.5,3.9,4.6,4.8
	C3.8,5.6,3.2,6.8,3.1,8C2.9,9.8,2.7,11.9,2.7,14s0.2,4.3,0.4,6.1c0.1,1.2,0.7,2.3,1.5,3.2c0.9,0.9,2,1.4,3.2,1.5c0,0,0,0,0,0
	c1.2,0.1,2.5,0.3,3.7,0.3v-5H8.3c-0.3,0-0.5-0.2-0.5-0.5V15c0-0.3,0.2-0.5,0.5-0.5h3.2v-2.3c0-1.6,0.6-3.2,1.8-4.3S16,6,17.6,6h0.9
	c0.6,0,1.2,0.2,1.7,0.7c0.4,0.4,0.7,1,0.7,1.7v2.8c0,0.3-0.2,0.5-0.5,0.5h-1.9c-0.8,0-1.4,0.6-1.4,1.4v1.4h3.2
	c0.3,0,0.5,0.2,0.5,0.5v4.7c0,0.3-0.2,0.5-0.5,0.5h-3.2v4.9c0.9-0.1,1.9-0.2,2.8-0.3c1.2-0.1,2.3-0.7,3.2-1.5c0.9-0.9,1.4-2,1.5-3.2
	c0.2-1.8,0.4-3.9,0.4-6.1c0-2.1-0.2-4.3-0.4-6.1c-0.1-1.2-0.7-2.3-1.5-3.2c-0.9-0.9-2-1.4-3.2-1.5C18.1,3,16,2.8,13.9,2.8z"/>
</svg>
