<?xml version="1.0" encoding="utf-8"?>
<!-- Generator: Adobe Illustrator 23.0.5, SVG Export Plug-In . SVG Version: 6.00 Build 0)  -->
<svg version="1.1" id="Слой_1" xmlns="http://www.w3.org/2000/svg" xmlns:xlink="http://www.w3.org/1999/xlink" x="0px" y="0px"
	 viewBox="0 0 48 47" style="enable-background:new 0 0 48 47;" xml:space="preserve">
<style type="text/css">
	.st0{fill:#FFFFFF;}
</style>
<path class="st0" d="M31.6,43.5H16.1c-6.2,0-8.5-2.3-8.5-8.5V19.4c0-0.4,0.3-0.8,0.8-0.8h31.1c0.4,0,0.8,0.3,0.8,0.8V35
	C40.1,41.2,37.8,43.5,31.6,43.5z M9,20.2V35c0,5.4,1.6,7,7,7h15.5c5.4,0,7-1.6,7-7V20.2H9z"/>
<path class="st0" d="M38.4,20.2H9.3c-3,0-4.6-1.6-4.6-4.6v-1.9c0-3,1.6-4.6,4.6-4.6h29.1c2.9,0,4.6,1.7,4.6,4.6v1.9
	C43.1,18.4,41.3,20.2,38.4,20.2z M9.3,10.5c-2.2,0-3.1,1-3.1,3.1v1.9c0,2.2,1,3.1,3.1,3.1h29.1c2.1,0,3.1-1.1,3.1-3.1v-1.9
	c0-2.1-1.1-3.1-3.1-3.1H9.3z"/>
<path class="st0" d="M23.2,10.5H12.5c-0.2,0-0.4-0.1-0.6-0.2C11,9.2,11,7.6,12,6.7l2.8-2.8c1-1,2.7-1,3.7,0l5.3,5.3
	c0.2,0.2,0.3,0.5,0.2,0.8S23.5,10.5,23.2,10.5z M12.8,9h8.5l-4-4c-0.4-0.4-1.1-0.4-1.6,0l-2.8,2.8C12.7,8.1,12.6,8.6,12.8,9z"/>
<path class="st0" d="M35.3,10.5H24.6c-0.3,0-0.6-0.2-0.7-0.5S23.8,9.4,24,9.2l5.3-5.3c1-1,2.7-1,3.7,0l2.8,2.8c1,1,1,2.5,0.1,3.6
	C35.7,10.4,35.5,10.5,35.3,10.5z M26.4,9h8.5c0.2-0.4,0.1-0.9-0.2-1.2L31.9,5c-0.4-0.4-1.1-0.4-1.6,0L26.4,9z"/>
<path class="st0" d="M19.9,32.1c-0.4,0-0.9-0.1-1.3-0.3c-0.9-0.5-1.4-1.4-1.4-2.4v-10c0-0.4,0.3-0.8,0.8-0.8h11.7
	c0.4,0,0.8,0.3,0.8,0.8v10c0,1-0.5,1.9-1.4,2.4c-0.9,0.5-1.9,0.4-2.8-0.1l-1.7-1.2c-0.4-0.3-0.9-0.3-1.3,0l-1.8,1.2
	C20.9,31.9,20.4,32.1,19.9,32.1z M18.7,20.2v9.2c0,0.4,0.2,0.8,0.6,1c0.4,0.2,0.9,0.2,1.2,0l1.8-1.2c0.9-0.6,2.1-0.6,3,0l1.7,1.2
	c0.4,0.2,0.8,0.3,1.2,0.1c0.4-0.2,0.6-0.6,0.6-1v-9.2H18.7z"/>
</svg>
