<?xml version="1.0" encoding="utf-8"?>
<!-- Generator: Adobe Illustrator 23.0.5, SVG Export Plug-In . SVG Version: 6.00 Build 0)  -->
<svg version="1.1" id="Слой_1" xmlns="http://www.w3.org/2000/svg" xmlns:xlink="http://www.w3.org/1999/xlink" x="0px" y="0px"
	 viewBox="0 0 28 28" style="enable-background:new 0 0 28 28;" xml:space="preserve">
<style type="text/css">
	.st0{fill:#FFFFFF;}
</style>
<path class="st0" d="M14.2,26.3c-2.2,0-4.3-0.2-6.2-0.4c-1.5-0.2-2.9-0.8-3.9-1.9c-1-1.1-1.7-2.4-1.9-3.9c0,0,0,0,0,0
	C2,18.3,1.8,16.2,1.8,14c0-2.2,0.2-4.3,0.4-6.1C2.4,6.4,3.1,5,4.1,4S6.6,2.2,8,2.1c1.8-0.2,4-0.4,6.2-0.4c2.2,0,4.3,0.2,6.2,0.4
	c1.5,0.2,2.9,0.8,3.9,1.9s1.7,2.4,1.9,3.9c0.2,1.8,0.4,3.9,0.4,6.1s-0.2,4.3-0.4,6.1C26,21.6,25.3,23,24.3,24
	c-1,1.1-2.4,1.7-3.9,1.9C18.5,26.1,16.4,26.3,14.2,26.3z M3.2,20c0.1,1.3,0.7,2.4,1.6,3.3c0.9,0.9,2.1,1.5,3.3,1.6
	c1.8,0.2,3.9,0.4,6,0.4c2.1,0,4.3-0.2,6-0.4c1.3-0.1,2.4-0.7,3.3-1.6s1.5-2.1,1.6-3.3c0.2-1.8,0.4-3.9,0.4-6c0-2.1-0.2-4.2-0.4-6
	c-0.1-1.3-0.7-2.4-1.6-3.3c-0.9-0.9-2.1-1.5-3.3-1.6c-1.8-0.2-3.9-0.4-6-0.4c-2.1,0-4.2,0.2-6,0.4C6.9,3.2,5.7,3.8,4.8,4.7
	C3.9,5.6,3.4,6.7,3.2,8C3,9.8,2.8,11.9,2.8,14C2.8,16.1,3,18.2,3.2,20L3.2,20z"/>
<path class="st0" d="M20.6,8.8c-0.3,0-0.5-0.2-0.5-0.5V7.4c0-0.3,0.2-0.5,0.5-0.5s0.5,0.2,0.5,0.5v0.9C21.1,8.6,20.9,8.8,20.6,8.8z"
	/>
<path class="st0" d="M14.2,18.8c-3,0-4.8-1.7-4.8-4.8c0-3,1.8-4.8,4.8-4.8c3,0,4.8,1.8,4.8,4.8S17.2,18.8,14.2,18.8z M14.2,10.2
	c-2.5,0-3.8,1.3-3.8,3.8c0,2.5,1.3,3.8,3.8,3.8c2.5,0,3.8-1.3,3.8-3.8C17.9,11.5,16.6,10.2,14.2,10.2z"/>
</svg>
