<svg width="49" height="49" viewBox="0 0 49 49" fill="none" xmlns="http://www.w3.org/2000/svg">
<path d="M-1.05636e-06 24.8333C-4.73249e-07 38.1733 10.8267 49 24.1667 49C37.5067 49 48.3333 38.1733 48.3333 24.8333C48.3333 11.4933 37.5067 0.666662 24.1667 0.666663C10.8267 0.666664 -1.63947e-06 11.4933 -1.05636e-06 24.8333ZM26.6558 16.3025L33.9058 23.5525C34.2683 23.915 34.4375 24.3742 34.4375 24.8333C34.4375 25.2925 34.2683 25.7517 33.9058 26.1142L26.6558 33.3642C25.955 34.065 24.795 34.065 24.0942 33.3642C23.3933 32.6633 23.3933 31.5033 24.0942 30.8025L28.2508 26.6458L15.7083 26.6458C14.7175 26.6458 13.8958 25.8242 13.8958 24.8333C13.8958 23.8425 14.7175 23.0208 15.7083 23.0208L28.2508 23.0208L24.0942 18.8642C23.3933 18.1633 23.3933 17.0033 24.0942 16.3025C24.795 15.6017 25.955 15.6017 26.6558 16.3025Z" fill="#333A43"/>
</svg>
