<?xml version="1.0" encoding="utf-8"?>
<!-- Generator: Adobe Illustrator 23.0.5, SVG Export Plug-In . SVG Version: 6.00 Build 0)  -->
<svg version="1.1" id="Слой_1" xmlns="http://www.w3.org/2000/svg" xmlns:xlink="http://www.w3.org/1999/xlink" x="0px" y="0px"
	 viewBox="0 0 88 80" style="enable-background:new 0 0 88 80;" xml:space="preserve">
<style type="text/css">
	.st0{fill:#FFFFFF;}
</style>
<path class="st0" d="M44,79.7c-14.5,0-25.1-0.5-31.5-0.8C6.6,78.5,1.9,74,1.4,68.1c-0.7-7.6-1-15-1-22.3c0-7.4,0.4-14.9,1-22.3
	c0.5-5.9,5.2-10.4,11.1-10.8c3.3-0.2,6.9-0.4,10.8-0.5L26,6.6c1.6-3.3,4.7-5.5,8.2-5.8c3.1-0.2,6.5-0.3,10-0.3
	c3.2,0,6.4,0.1,9.5,0.3c3.5,0.3,6.6,2.4,8.2,5.8l2.8,5.7c3.8,0.1,7.4,0.3,10.8,0.5c5.9,0.4,10.6,4.9,11.1,10.8c0.7,7.5,1,15,1,22.3
	s-0.3,14.7-1,22.3c-0.5,5.9-5.2,10.4-11.1,10.8C69.1,79.3,58.5,79.7,44,79.7z M44.2,2c-3.4,0-6.7,0.1-9.9,0.3c-3,0.2-5.6,2.1-7,4.9
	l-3,6.1c-0.1,0.3-0.4,0.4-0.6,0.4c-4,0.1-7.7,0.3-11.2,0.5c-5.2,0.3-9.2,4.3-9.7,9.4c-0.7,7.3-1,14.8-1,22.1c0,7.2,0.3,14.6,1,22.1
	c0.5,5.1,4.5,9.1,9.7,9.4c6.3,0.4,16.9,0.8,31.4,0.8c14.5,0,25.1-0.5,31.4-0.8c5.2-0.3,9.2-4.3,9.7-9.4c0.7-7.4,1-15,1-22.1
	c0-7.2-0.3-14.6-1-22.1c-0.5-5.1-4.5-9.1-9.7-9.4c-3.5-0.2-7.3-0.4-11.2-0.5c-0.3,0-0.5-0.2-0.7-0.4l-3-6.1c-1.4-2.9-4-4.7-7-4.9
	C50.5,2.1,47.3,2,44.2,2z"/>
<path class="st0" d="M44,63.2c-5.1,0-9.9-2-13.5-5.6c-3.6-3.6-5.6-8.4-5.6-13.5s2-9.9,5.6-13.5C34.1,26.9,38.9,25,44,25
	c5.1,0,9.9,2,13.5,5.6s5.6,8.4,5.6,13.5c0,5.1-2,9.9-5.6,13.5C53.9,61.2,49.1,63.2,44,63.2z M44,26.5c-4.7,0-9.1,1.8-12.5,5.2
	c-3.3,3.3-5.2,7.8-5.2,12.5c0,4.7,1.8,9.1,5.2,12.5c3.3,3.3,7.8,5.2,12.5,5.2c4.7,0,9.1-1.8,12.5-5.2c3.3-3.3,5.2-7.8,5.2-12.5
	s-1.8-9.1-5.2-12.5C53.1,28.3,48.7,26.5,44,26.5z"/>
</svg>
