<svg width="49" height="49" viewBox="0 0 49 49" fill="none" xmlns="http://www.w3.org/2000/svg">
<path d="M48.3333 24.1667C48.3333 10.8267 37.5066 1.29107e-07 24.1666 2.88185e-07C10.8266 4.47263e-07 -8.37942e-05 10.8267 -8.36352e-05 24.1667C-8.34761e-05 37.5067 10.8266 48.3333 24.1666 48.3333C37.5066 48.3333 48.3333 37.5067 48.3333 24.1667ZM21.6774 32.6975L14.4274 25.4475C14.0649 25.085 13.8958 24.6258 13.8958 24.1667C13.8958 23.7075 14.0649 23.2483 14.4274 22.8858L21.6774 15.6358C22.3783 14.935 23.5383 14.935 24.2391 15.6358C24.9399 16.3367 24.9399 17.4967 24.2391 18.1975L20.0824 22.3542L32.6249 22.3542C33.6158 22.3542 34.4374 23.1758 34.4374 24.1667C34.4374 25.1575 33.6158 25.9792 32.6249 25.9792L20.0824 25.9792L24.2391 30.1358C24.9399 30.8367 24.9399 31.9967 24.2391 32.6975C23.5383 33.3983 22.3783 33.3983 21.6774 32.6975Z" fill="white"/>
</svg>
