<?xml version="1.0" encoding="utf-8"?>
<!-- Generator: Adobe Illustrator 23.0.5, SVG Export Plug-In . SVG Version: 6.00 Build 0)  -->
<svg version="1.1" id="Слой_1" xmlns="http://www.w3.org/2000/svg" xmlns:xlink="http://www.w3.org/1999/xlink" x="0px" y="0px"
	 viewBox="0 0 22 22" style="enable-background:new 0 0 22 22;" xml:space="preserve">
<style type="text/css">
	.st0{fill:#FFFFFF;}
</style>
<path class="st0" d="M17,20c-1,0-2.3-0.3-4.1-1.2l-7.8-3.9c-2-1-3.1-2.4-3.1-3.9c0-1.5,1.1-2.9,3.1-3.9l7.8-3.9
	c3.7-1.8,5.4-1.2,6.2-0.4C20,3.6,20.6,5.3,18.7,9l-0.8,1.6c-0.1,0.2-0.1,0.6,0,0.8l0.8,1.6c1.8,3.7,1.2,5.4,0.4,6.2
	C18.8,19.6,18.1,20,17,20z M17,3.5c-0.8,0-1.9,0.3-3.4,1L5.8,8.5C4.4,9.2,3.5,10.1,3.5,11c0,0.9,0.8,1.8,2.2,2.5l7.8,3.9l0,0
	c2.6,1.3,4,1.2,4.5,0.7s0.6-1.9-0.7-4.5l-0.8-1.6c-0.3-0.6-0.3-1.5,0-2.1l0.8-1.6c1.3-2.6,1.2-4,0.7-4.5C17.9,3.6,17.6,3.5,17,3.5z"
	/>
<path class="st0" d="M17,11.8h-5c-0.4,0-0.8-0.3-0.8-0.8s0.3-0.8,0.8-0.8h5c0.4,0,0.8,0.3,0.8,0.8S17.4,11.8,17,11.8z"/>
</svg>
