<?xml version="1.0" encoding="utf-8"?>
<!-- Generator: Adobe Illustrator 23.0.5, SVG Export Plug-In . SVG Version: 6.00 Build 0)  -->
<svg version="1.1" id="Слой_1" xmlns="http://www.w3.org/2000/svg" xmlns:xlink="http://www.w3.org/1999/xlink" x="0px" y="0px"
	 viewBox="0 0 28 28" style="enable-background:new 0 0 28 28;" xml:space="preserve">
<style type="text/css">
	.st0{fill:#FFFFFF;}
</style>
<path class="st0" d="M13.6,24.1c-2.1,0-4.1-0.2-6-0.3c-3.1-0.3-5.6-2.7-5.9-5.7c-0.2-1.6-0.3-2.9-0.3-4.1c0-1.4,0.1-2.8,0.3-4.1
	c0.4-3,2.8-5.4,5.9-5.7c1.9-0.2,3.9-0.3,6-0.3c2.1,0,4.1,0.2,6,0.3c3.1,0.3,5.6,2.7,5.9,5.7c0.2,1.6,0.3,2.9,0.3,4.1
	c0,1.2-0.1,2.5-0.3,4.1c-0.4,3-2.8,5.4-5.9,5.7C17.8,24,15.7,24.1,13.6,24.1z M13.6,4.9c-2.1,0-4.1,0.2-5.9,0.3
	C5.1,5.4,3,7.4,2.7,10c-0.2,1.3-0.3,2.7-0.3,4c0,1.2,0.1,2.4,0.3,4v0c0.3,2.6,2.4,4.6,5,4.8c1.9,0.2,3.9,0.3,5.9,0.3
	s4.1-0.2,5.9-0.3c2.6-0.2,4.7-2.3,5-4.8c0.2-1.6,0.3-2.8,0.3-4c0-1.2-0.1-2.4-0.3-4c-0.3-2.6-2.4-4.6-5-4.8
	C17.7,5,15.7,4.9,13.6,4.9z"/>
<path class="st0" d="M12.3,19.1c-0.4,0-0.8-0.1-1.2-0.3c-0.7-0.4-1.2-1.2-1.2-2.1v-5.5c0-0.9,0.4-1.6,1.2-2.1c0.7-0.4,1.6-0.4,2.3,0
	c5.1,2.8,5.7,4.1,5.7,4.8c0,0.8-0.6,2.1-5.7,4.8c0,0,0,0,0,0C13.1,19,12.7,19.1,12.3,19.1z M12.3,9.9c-0.2,0-0.5,0.1-0.7,0.2
	c-0.4,0.3-0.7,0.7-0.7,1.2v5.5c0,0.5,0.3,1,0.7,1.2c0.4,0.2,0.9,0.3,1.3,0l0,0v0l0,0c5-2.7,5.2-3.8,5.2-4c0-0.2-0.3-1.3-5.2-4
	C12.8,9.9,12.6,9.9,12.3,9.9z"/>
</svg>
