<?xml version="1.0" standalone="no"?>
  <!DOCTYPE svg PUBLIC "-//W3C//DTD SVG 1.1//EN" "http://www.w3.org/Graphics/SVG/1.1/DTD/svg11.dtd" >
  <svg>
  <metadata>
  Created by font-carrier
  </metadata>
  <defs>
  <font id="PloniMLv2AAA-Bold" horiz-adv-x="1697" vert-adv-y="1697" >
    <font-face
      
      font-family="PloniMLv2AAA-Bold"
      
      font-weight="400"
      
      font-stretch="normal"
      
      units-per-em="1158"
      
      ascent="1140"
      
      descent="-336"
      
    />
      <missing-glyph />

      

      
      <glyph glyph-name="uni21" unicode="&#x21;" d="M284 700L90 700L111 262L263 262ZM187-7C247-7 295 41 295 101C295 161 247 209 187 209C127 209 79 161 79 101C79 41 127-7 187-7Z"  horiz-adv-x="374" vert-adv-y="1158"  />

      
      <glyph glyph-name="uni22" unicode="&#x22;" d="M38 405L166 405L248 700L84 700ZM242 405L370 405L452 700L288 700Z"  horiz-adv-x="474" vert-adv-y="1158"  />

      
      <glyph glyph-name="uni23" unicode="&#x23;" d="M827 555L698 555L731 700L565 700L532 555L405 555L438 700L272 700L239 555L109 555L78 420L208 420L180 299L51 299L20 164L149 164L112 0L278 0L315 164L442 164L405 0L571 0L608 164L738 164L769 299L639 299L667 420L796 420ZM346 299L374 420L501 420L473 299Z"  horiz-adv-x="847" vert-adv-y="1158"  />

      
      <glyph glyph-name="uni24" unicode="&#x24;" d="M550 212C550 337 464 382 340 419C223 453 201 474 201 507C201 541 231 557 280 557C336 557 380 527 405 479L540 544C508 611 451 666 362 687L362 760L241 760L241 693C135 680 43 623 43 508C43 376 164 332 264 300C363 268 393 243 393 206C393 170 363 151 309 151C248 151 198 183 159 258L30 185C65 90 142 33 241 18L241-60L362-60L362 19C459 36 550 96 550 212Z"  horiz-adv-x="596" vert-adv-y="1158"  />

      
      <glyph glyph-name="uni25" unicode="&#x25;" d="M237 291C353 291 425 375 425 499C425 623 353 707 237 707C119 707 46 623 46 499C46 375 119 291 237 291ZM469 442L610 442L797 695L797 700L636 700L469 455ZM237 394C190 394 165 436 165 499C165 563 190 605 237 605C283 605 307 563 307 499C307 436 283 394 237 394ZM660-8C776-8 848 76 848 200C848 324 776 408 660 408C542 408 469 324 469 200C469 76 542-8 660-8ZM660 95C613 95 588 137 588 200C588 264 613 306 660 306C706 306 730 264 730 200C730 137 706 95 660 95ZM433 258L292 258L105 5L105 0L266 0L433 245Z"  horiz-adv-x="894" vert-adv-y="1158"  />

      
      <glyph glyph-name="uni26" unicode="&#x26;" d="M560 128C594 176 625 238 650 321L509 368C497 321 481 281 461 249L307 437C251 505 286 565 352 565C396 565 429 541 450 483L590 527C560 648 477 709 347 709C174 709 49 565 149 401C65 342 21 278 21 177C21 80 102-10 258-9C328-9 392 1 449 30L474 0L657 0L657 10ZM272 133C222 133 190 160 190 200C190 235 207 264 240 286L352 149C326 138 299 133 272 133Z"  horiz-adv-x="676" vert-adv-y="1158"  />

      
      <glyph glyph-name="uni27" unicode="&#x27;" d="M38 405L168 405L252 700L85 700Z"  horiz-adv-x="274" vert-adv-y="1158"  />

      
      <glyph glyph-name="uni28" unicode="&#x28;" d="M221 700C125 607 67 463 67 300C67 137 125-7 221-100L357-100C299-33 230 134 230 300C230 466 299 633 357 700Z"  horiz-adv-x="378" vert-adv-y="1158"  />

      
      <glyph glyph-name="uni29" unicode="&#x29;" d="M21 700C79 633 148 466 148 300C148 134 79-33 21-100L157-100C253-7 311 137 311 300C311 463 253 607 157 700Z"  horiz-adv-x="378" vert-adv-y="1158"  />

      
      <glyph glyph-name="uni2a" unicode="&#x2a;" d="M464 616L343 571L349 700L211 700L217 571L95 616L53 485L177 450L97 350L208 269L280 377L351 269L462 350L382 450L506 485Z"  horiz-adv-x="559" vert-adv-y="1158"  />

      
      <glyph glyph-name="uni2b" unicode="&#x2b;" d="M359 370L359 530L219 530L219 370L59 370L59 230L219 230L219 70L359 70L359 230L519 230L519 370Z"  horiz-adv-x="578" vert-adv-y="1158"  />

      
      <glyph glyph-name="uni2c" unicode="&#x2c;" d="M18-137L144-137L229 146L65 146Z"  horiz-adv-x="264" vert-adv-y="1158"  />

      
      <glyph glyph-name="uni2d" unicode="&#x2d;" d="M434 230L434 370L59 370L59 230Z"  horiz-adv-x="493" vert-adv-y="1158"  />

      
      <glyph glyph-name="uni2e" unicode="&#x2e;" d="M149-7C209-7 257 41 257 101C257 161 209 209 149 209C89 209 41 161 41 101C41 41 89-7 149-7Z"  horiz-adv-x="298" vert-adv-y="1158"  />

      
      <glyph glyph-name="uni2f" unicode="&#x2f;" d="M334 700L11 7L11 0L175 0L498 693L498 700Z"  horiz-adv-x="509" vert-adv-y="1158"  />

      
      <glyph glyph-name="uni30" unicode="&#x30;" d="M334-11C516-11 629 127 629 350C629 573 516 711 334 711C151 711 37 573 37 350C37 127 151-11 334-11ZM334 143C256 143 207 222 207 350C207 478 256 557 334 557C411 557 459 478 459 350C459 222 411 143 334 143Z"  horiz-adv-x="666" vert-adv-y="1158"  />

      
      <glyph glyph-name="uni31" unicode="&#x31;" d="M7 455L106 350L196 437L196 0L366 0L366 700L258 700Z"  horiz-adv-x="450" vert-adv-y="1158"  />

      
      <glyph glyph-name="uni32" unicode="&#x32;" d="M187 456C196 530 234 562 282 562C334 562 358 536 358 501C358 458 332 406 222 269L25 24L25 0L543 0L543 145L334 145L390 217C488 343 530 431 530 498C530 633 434 711 285 711C159 711 51 657 20 481Z"  horiz-adv-x="575" vert-adv-y="1158"  />

      
      <glyph glyph-name="uni33" unicode="&#x33;" d="M436 378C476 405 503 452 503 521C503 629 415 711 265 711C148 711 65 659 21 592L125 503C170 552 216 566 253 566C301 566 333 549 333 506C333 468 312 439 233 439L171 439L171 300L253 300C339 300 375 269 375 215C375 161 332 134 269 134C219 134 163 158 123 204L3 114C36 56 129-11 277-11C448-11 545 80 545 199C545 291 501 357 436 378Z"  horiz-adv-x="573" vert-adv-y="1158"  />

      
      <glyph glyph-name="uni34" unicode="&#x34;" d="M496 255L496 700L357 700L14 246L14 110L326 110L326 0L496 0L496 110L557 110L557 255ZM329 438L329 255L194 255L328 438Z"  horiz-adv-x="595" vert-adv-y="1158"  />

      
      <glyph glyph-name="uni35" unicode="&#x35;" d="M270 471C256 471 241 470 225 468L230 555L479 555L479 700L71 700L49 324L54 322C105 335 151 341 194 341C272 341 327 307 327 237C327 174 275 140 205 140C158 140 117 153 76 174L26 32C77 4 139-11 225-11C389-11 504 96 504 229C504 368 426 471 270 471Z"  horiz-adv-x="540" vert-adv-y="1158"  />

      
      <glyph glyph-name="uni36" unicode="&#x36;" d="M344 458C333 458 322 458 311 456L484 692L484 700L280 700L110 450C50 361 20 307 20 225C20 92 133-11 291-11C449-11 562 92 562 235C562 365 471 458 344 458ZM291 140C233 140 192 180 192 235C192 290 233 330 291 330C349 330 390 290 390 235C390 180 349 140 291 140Z"  horiz-adv-x="586" vert-adv-y="1158"  />

      
      <glyph glyph-name="uni37" unicode="&#x37;" d="M20 555L283 555L85 0L264 0L506 682L506 700L20 700Z"  horiz-adv-x="517" vert-adv-y="1158"  />

      
      <glyph glyph-name="uni38" unicode="&#x38;" d="M468 383C513 416 539 464 539 519C539 630 439 710 299 710C159 710 58 630 58 519C58 463 85 416 130 383C63 344 22 281 22 206C22 79 138-12 299-12C460-12 576 79 576 206C576 281 535 345 468 383ZM299 568C340 568 369 541 369 504C369 467 340 440 299 440C258 440 229 467 229 504C229 541 258 568 299 568ZM299 138C239 138 195 174 195 224C195 275 239 312 299 312C359 312 403 275 403 224C403 174 359 138 299 138Z"  horiz-adv-x="598" vert-adv-y="1158"  />

      
      <glyph glyph-name="uni39" unicode="&#x39;" d="M297 711C139 711 26 608 26 465C26 335 117 242 244 242C255 242 266 242 277 244L104 8L104 0L308 0L478 250C538 339 568 393 568 475C568 608 455 711 297 711ZM297 370C239 370 198 410 198 465C198 520 239 560 297 560C355 560 396 520 396 465C396 410 355 370 297 370Z"  horiz-adv-x="594" vert-adv-y="1158"  />

      
      <glyph glyph-name="uni3a" unicode="&#x3a;" d="M169 342C229 342 277 390 277 450C277 510 229 558 169 558C109 558 61 510 61 450C61 390 109 342 169 342ZM169-7C229-7 277 41 277 101C277 161 229 209 169 209C109 209 61 161 61 101C61 41 109-7 169-7Z"  horiz-adv-x="338" vert-adv-y="1158"  />

      
      <glyph glyph-name="uni3b" unicode="&#x3b;" d="M171 342C231 342 279 390 279 450C279 510 231 558 171 558C111 558 63 510 63 450C63 390 111 342 171 342ZM51-137L177-137L262 146L98 146Z"  horiz-adv-x="340" vert-adv-y="1158"  />

      
      <glyph glyph-name="uni3c" unicode="&#x3c;" d="M475 46L475 194L216 300L475 407L475 555L64 369L64 231Z"  horiz-adv-x="557" vert-adv-y="1158"  />

      
      <glyph glyph-name="uni3d" unicode="&#x3d;" d="M513 352L513 482L69 482L69 352ZM513 119L513 249L69 249L69 119Z"  horiz-adv-x="582" vert-adv-y="1158"  />

      
      <glyph glyph-name="uni3e" unicode="&#x3e;" d="M493 369L82 555L82 407L341 300L82 194L82 46L493 231Z"  horiz-adv-x="557" vert-adv-y="1158"  />

      
      <glyph glyph-name="uni3f" unicode="&#x3f;" d="M336 237C333 334 512 363 512 532C512 648 431 709 295 711C155 713 56 640 32 506L183 469C202 537 234 566 275 566C321 566 344 548 344 513C344 416 176 405 182 237ZM259-6C314-6 357 37 357 92C357 146 314 190 259 190C205 190 161 146 161 92C161 37 205-6 259-6Z"  horiz-adv-x="564" vert-adv-y="1158"  />

      
      <glyph glyph-name="uni40" unicode="&#x40;" d="M478 711C236 711 46 521 46 279C46 29 250-182 551-148L532-16C338-46 183 98 183 279C183 444 316 578 478 578C641 578 774 444 774 279C774 161 758 123 722 123C693 123 675 145 675 223L675 309C675 450 601 502 477 502C401 502 329 475 291 452L333 360C364 378 411 394 455 394C507 394 539 376 546 328C519 343 486 351 451 351C348 351 275 288 275 201C275 113 348 50 451 50C505 50 550 66 581 94C597 40 639-2 718-2C852-2 911 101 911 279C911 521 720 711 478 711ZM477 146C432 146 401 168 401 202C401 236 432 258 477 258C521 258 552 236 553 202C554 168 523 146 477 146Z"  horiz-adv-x="957" vert-adv-y="1158"  />

      
      <glyph glyph-name="uni41" unicode="&#x41;" d="M287 700L-7 8L-7 0L168 0L210 109L488 109L530 0L705 0L705 8L411 700ZM349 469L436 244L262 244Z"  horiz-adv-x="698" vert-adv-y="1158"  />

      
      <glyph glyph-name="uni42" unicode="&#x42;" d="M552 367C591 392 616 439 616 501C616 626 537 700 403 700L76 700L76 0L418 0C557 0 639 70 639 203C639 276 608 339 552 367ZM378 563C433 563 458 538 458 493C458 448 433 425 378 425L240 425L240 563ZM240 137L240 299L395 299C452 299 479 272 479 219C479 166 452 137 395 137Z"  horiz-adv-x="669" vert-adv-y="1158"  />

      
      <glyph glyph-name="uni43" unicode="&#x43;" d="M400 141C287 141 201 228 201 350C201 472 287 559 400 559C458 559 510 534 537 504L638 615C582 679 497 712 390 712C188 712 36 558 36 350C36 142 188-12 390-12C497-12 582 21 638 85L537 196C510 166 458 141 400 141Z"  horiz-adv-x="650" vert-adv-y="1158"  />

      
      <glyph glyph-name="uni44" unicode="&#x44;" d="M76 700L76 0L324 0C561 0 699 127 699 350C699 573 561 700 324 700ZM246 145L246 555L332 555C455 555 529 481 529 350C529 219 455 145 332 145Z"  horiz-adv-x="735" vert-adv-y="1158"  />

      
      <glyph glyph-name="uni45" unicode="&#x45;" d="M577 700L76 700L76 0L577 0L577 145L246 145L246 287L517 287L517 426L246 426L246 555L577 555Z"  horiz-adv-x="642" vert-adv-y="1158"  />

      
      <glyph glyph-name="uni46" unicode="&#x46;" d="M547 700L76 700L76 0L246 0L246 278L495 278L495 417L246 417L246 555L547 555Z"  horiz-adv-x="593" vert-adv-y="1158"  />

      
      <glyph glyph-name="uni47" unicode="&#x47;" d="M413 419L413 286L579 286C564 202 493 146 402 146C291 146 209 226 209 350C209 474 291 558 402 558C455 558 519 529 556 486L668 585C607 661 500 711 399 711C189 711 36 560 36 350C36 140 189-12 399-12C621-12 769 166 738 419Z"  horiz-adv-x="778" vert-adv-y="1158"  />

      
      <glyph glyph-name="uni48" unicode="&#x48;" d="M524 439L246 439L246 700L76 700L76 0L246 0L246 294L524 294L524 0L694 0L694 700L524 700Z"  horiz-adv-x="770" vert-adv-y="1158"  />

      
      <glyph glyph-name="uni49" unicode="&#x49;" d="M76 0L246 0L246 700L76 700Z"  horiz-adv-x="322" vert-adv-y="1158"  />

      
      <glyph glyph-name="uni4a" unicode="&#x4a;" d="M-12 146C24 40 112-11 228-11C373-11 460 72 460 220L460 700L290 700L290 220C290 163 259 140 220 140C179 140 151 166 140 206Z"  horiz-adv-x="532" vert-adv-y="1158"  />

      
      <glyph glyph-name="uni4b" unicode="&#x4b;" d="M682 695L682 700L474 700L246 434L246 700L76 700L76 0L246 0L246 300L488 0L694 0L694 5L394 371Z"  horiz-adv-x="697" vert-adv-y="1158"  />

      
      <glyph glyph-name="uni4c" unicode="&#x4c;" d="M246 700L76 700L76 0L536 0L536 145L246 145Z"  horiz-adv-x="569" vert-adv-y="1158"  />

      
      <glyph glyph-name="uni4d" unicode="&#x4d;" d="M460 354L224 700L76 700L76 0L240 0L240 400L440 114L480 114L680 400L680 0L844 0L844 700L696 700Z"  horiz-adv-x="920" vert-adv-y="1158"  />

      
      <glyph glyph-name="uni4e" unicode="&#x4e;" d="M709 700L542 700L542 300L199 700L76 700L76 0L243 0L243 400L586 0L709 0Z"  horiz-adv-x="785" vert-adv-y="1158"  />

      
      <glyph glyph-name="uni4f" unicode="&#x4f;" d="M398-12C603-12 760 143 760 350C760 557 603 712 398 712C193 712 36 557 36 350C36 143 193-12 398-12ZM398 148C289 148 206 234 206 350C206 466 289 552 398 552C507 552 590 466 590 350C590 234 507 148 398 148Z"  horiz-adv-x="796" vert-adv-y="1158"  />

      
      <glyph glyph-name="uni50" unicode="&#x50;" d="M76 700L76 0L246 0L246 201L384 201C544 201 639 291 639 451C639 600 544 700 384 700ZM246 346L246 555L362 555C429 555 469 509 469 451C469 383 429 346 362 346Z"  horiz-adv-x="675" vert-adv-y="1158"  />

      
      <glyph glyph-name="uni51" unicode="&#x51;" d="M669 115C726 175 760 259 760 350C760 557 603 712 398 712C193 712 36 557 36 350C36 143 194-5 389-5C450-5 500 6 543 26L565 0L761 0L761 8ZM398 148C289 148 206 234 206 350C206 466 289 552 398 552C507 552 590 466 590 350C590 309 580 271 561 240L484 330L288 330L288 322L435 151C423 149 411 148 398 148Z"  horiz-adv-x="800" vert-adv-y="1158"  />

      
      <glyph glyph-name="uni52" unicode="&#x52;" d="M511 264C595 297 641 371 641 473C641 613 552 700 400 700L76 700L76 0L246 0L246 245L346 245L476 0L656 0L656 8ZM378 555C437 555 471 522 471 473C471 423 437 390 378 390L246 390L246 555Z"  horiz-adv-x="685" vert-adv-y="1158"  />

      
      <glyph glyph-name="uni53" unicode="&#x53;" d="M571 552C529 642 442 712 301 712C170 712 44 653 44 514C44 374 172 327 278 293C383 259 415 233 415 193C415 155 383 135 326 135C261 135 208 169 167 248L30 171C74 51 182-12 316-12C440-12 582 50 582 200C582 332 490 380 359 419C235 456 211 478 211 513C211 549 243 566 295 566C355 566 401 534 428 483Z"  horiz-adv-x="628" vert-adv-y="1158"  />

      
      <glyph glyph-name="uni54" unicode="&#x54;" d="M30 700L30 555L224 555L224 0L394 0L394 555L588 555L588 700Z"  horiz-adv-x="618" vert-adv-y="1158"  />

      
      <glyph glyph-name="uni55" unicode="&#x55;" d="M519 292C519 201 468 146 380 146C292 146 241 201 241 292L241 700L71 700L73 281C74 101 187-12 380-12C573-12 689 101 689 281L689 700L519 700Z"  horiz-adv-x="760" vert-adv-y="1158"  />

      
      <glyph glyph-name="uni56" unicode="&#x56;" d="M405 0L678 691L678 700L494 700L343 286L192 700L8 700L8 691L281 0Z"  horiz-adv-x="686" vert-adv-y="1158"  />

      
      <glyph glyph-name="uni57" unicode="&#x57;" d="M831 700L705 312L580 700L442 700L317 312L191 700L8 700L8 690L249 0L368 0L511 419L654 0L773 0L1014 690L1014 700Z"  horiz-adv-x="1022" vert-adv-y="1158"  />

      
      <glyph glyph-name="uni58" unicode="&#x58;" d="M710 6L468 362L694 694L694 700L498 700L357 478L215 700L19 700L19 694L245 362L5 6L3 0L199 0L357 246L514 0L710 0Z"  horiz-adv-x="713" vert-adv-y="1158"  />

      
      <glyph glyph-name="uni59" unicode="&#x59;" d="M331 449L193 700L2 700L2 694L246 284L246 0L416 0L416 284L662 694L662 700L471 700Z"  horiz-adv-x="664" vert-adv-y="1158"  />

      
      <glyph glyph-name="uni5a" unicode="&#x5a;" d="M45 700L45 555L324 555L23 10L23 0L584 0L584 145L283 145L584 690L584 700Z"  horiz-adv-x="624" vert-adv-y="1158"  />

      
      <glyph glyph-name="uni5b" unicode="&#x5b;" d="M86 770L86-170L368-170L368-40L246-40L246 640L368 640L368 770Z"  horiz-adv-x="397" vert-adv-y="1158"  />

      
      <glyph glyph-name="uni5c" unicode="&#x5c;" d="M11 693L334 0L498 0L498 7L175 700L11 700Z"  horiz-adv-x="509" vert-adv-y="1158"  />

      
      <glyph glyph-name="uni5d" unicode="&#x5d;" d="M29 640L151 640L151-40L29-40L29-170L311-170L311 770L29 770Z"  horiz-adv-x="397" vert-adv-y="1158"  />

      
      <glyph glyph-name="uni5e" unicode="&#x5e;" d="M324 733L43 441L153 338L327 535L502 338L612 442L330 733Z"  horiz-adv-x="655" vert-adv-y="1158"  />

      
      <glyph glyph-name="uni5f" unicode="&#x5f;" d="M15-181L400-181L400-36L15-36Z"  horiz-adv-x="415" vert-adv-y="1158"  />

      
      <glyph glyph-name="uni60" unicode="&#x60;" d="M115 750L260 600L396 600L298 750Z"  horiz-adv-x="575" vert-adv-y="1158"  />

      
      <glyph glyph-name="uni61" unicode="&#x61;" d="M281 561C184 561 93 526 46 497L98 387C138 410 197 431 253 431C322 431 368 405 374 335C340 357 297 370 248 370C118 370 25 290 25 180C25 70 118-10 248-10C297-10 341 3 375 25L375 0L538 0L538 317C538 495 437 561 281 561ZM283 105C226 105 185 137 185 182C185 227 226 259 283 259C342 259 381 227 381 182C381 137 342 105 283 105Z"  horiz-adv-x="589" vert-adv-y="1158"  />

      
      <glyph glyph-name="uni62" unicode="&#x62;" d="M384 558C314 558 259 534 221 488L221 750L61 750L61 0L221 0L221 62C259 16 314-8 384-8C531-8 637 114 637 275C637 436 531 558 384 558ZM349 132C277 132 222 193 222 275C222 357 277 418 349 418C425 418 477 357 477 275C477 193 425 132 349 132Z"  horiz-adv-x="666" vert-adv-y="1158"  />

      
      <glyph glyph-name="uni63" unicode="&#x63;" d="M29 275C29 106 144-11 310-11C414-11 510 50 549 136L421 203C398 162 356 132 310 132C235 132 182 191 182 275C182 359 235 418 310 418C355 418 397 389 421 348L549 414C510 500 414 561 310 561C144 561 29 444 29 275Z"  horiz-adv-x="576" vert-adv-y="1158"  />

      
      <glyph glyph-name="uni64" unicode="&#x64;" d="M445 488C407 534 352 558 282 558C135 558 29 436 29 275C29 114 135-8 282-8C352-8 407 16 445 62L445 0L605 0L605 750L445 750ZM317 132C241 132 189 193 189 275C189 357 241 418 317 418C389 418 444 357 444 275C444 193 389 132 317 132Z"  horiz-adv-x="666" vert-adv-y="1158"  />

      
      <glyph glyph-name="uni65" unicode="&#x65;" d="M306 560C146 560 29 438 29 275C29 113 146-10 306-10C404-10 479 31 530 101L408 185C384 152 347 132 305 132C250 132 206 163 186 214L575 214C598 390 492 560 306 560ZM305 416C370 416 409 374 422 324L183 324C199 381 245 416 305 416Z"  horiz-adv-x="607" vert-adv-y="1158"  />

      
      <glyph glyph-name="uni66" unicode="&#x66;" d="M310 640C331 640 355 629 381 614L441 720C393 752 333 778 275 778C179 778 92 720 92 597L92 550L36 550L36 425L92 425L92 0L252 0L252 425L360 425L360 550L252 550L252 565C252 615 276 640 310 640Z"  horiz-adv-x="391" vert-adv-y="1158"  />

      
      <glyph glyph-name="uni67" unicode="&#x67;" d="M601 557C530 557 473 545 437 508C396 541 341 560 277 560C138 560 38 468 38 340C38 280 60 227 99 189C62 164 30 128 30 69C30-11 102-63 228-63L335-63C391-63 406-72 406-95C406-118 378-130 307-130C193-130 111-99 65-77L1-202C61-236 161-274 307-274C481-274 566-201 566-90C566 22 496 77 362 77L261 77C211 77 197 87 197 103C197 111 201 120 210 129C231 124 254 121 277 121C416 121 516 213 516 340C516 361 513 382 508 401C536 409 569 412 601 412ZM277 258C228 258 193 292 193 340C193 388 228 422 277 422C326 422 361 388 361 340C361 292 326 258 277 258Z"  horiz-adv-x="607" vert-adv-y="1158"  />

      
      <glyph glyph-name="uni68" unicode="&#x68;" d="M386 555C318 555 260 530 221 483L221 750L61 750L61 0L221 0L221 309C221 377 262 421 322 421C382 421 423 377 423 309L423 0L583 0L583 309C583 467 514 555 386 555Z"  horiz-adv-x="634" vert-adv-y="1158"  />

      
      <glyph glyph-name="uni69" unicode="&#x69;" d="M141 604C195 604 237 646 237 700C237 754 195 796 141 796C87 796 45 754 45 700C45 646 87 604 141 604ZM221 0L221 550L61 550L61 0Z"  horiz-adv-x="282" vert-adv-y="1158"  />

      
      <glyph glyph-name="uni6a" unicode="&#x6a;" d="M127 604C181 604 223 646 223 700C223 753 181 795 127 795C73 795 31 753 31 700C31 646 73 604 127 604ZM-119-208C-78-232-24-254 33-254C126-254 207-196 207-67L207 550L47 550L47-41C47-86 28-106-1-106C-23-106-47-97-61-91Z"  horiz-adv-x="268" vert-adv-y="1158"  />

      
      <glyph glyph-name="uni6b" unicode="&#x6b;" d="M582 546L582 550L386 550L221 345L221 750L61 750L61 0L221 0L221 254L396 0L586 0L586 4L375 301Z"  horiz-adv-x="580" vert-adv-y="1158"  />

      
      <glyph glyph-name="uni6c" unicode="&#x6c;" d="M221 0L221 750L61 750L61 0Z"  horiz-adv-x="282" vert-adv-y="1158"  />

      
      <glyph glyph-name="uni6d" unicode="&#x6d;" d="M690 560C611 560 552 529 517 475C489 529 439 560 366 560C304 560 255 538 221 498L221 550L61 550L61 0L221 0L221 336C221 390 256 427 308 427C357 427 391 390 391 336L391 0L551 0L551 336C551 390 586 427 638 427C687 427 721 390 721 336L721 0L881 0L881 357C881 487 804 560 690 560Z"  horiz-adv-x="934" vert-adv-y="1158"  />

      
      <glyph glyph-name="uni6e" unicode="&#x6e;" d="M383 560C316 560 260 535 221 490L221 550L61 550L61 0L221 0L221 314C221 380 262 426 322 426C382 426 423 380 423 314L423 0L583 0L583 324C583 479 511 560 383 560Z"  horiz-adv-x="634" vert-adv-y="1158"  />

      
      <glyph glyph-name="uni6f" unicode="&#x6f;" d="M311-13C475-13 593 106 593 275C593 444 475 563 311 563C147 563 29 444 29 275C29 106 147-13 311-13ZM311 131C239 131 184 192 184 275C184 358 239 419 311 419C383 419 438 358 438 275C438 192 383 131 311 131Z"  horiz-adv-x="622" vert-adv-y="1158"  />

      
      <glyph glyph-name="uni70" unicode="&#x70;" d="M384 558C314 558 259 534 221 488L221 550L61 550L61-200L221-200L221 62C259 16 314-8 384-8C531-8 637 114 637 275C637 436 531 558 384 558ZM349 132C277 132 222 193 222 275C222 357 277 418 349 418C425 418 477 357 477 275C477 193 425 132 349 132Z"  horiz-adv-x="666" vert-adv-y="1158"  />

      
      <glyph glyph-name="uni71" unicode="&#x71;" d="M445 488C407 534 352 558 282 558C135 558 29 436 29 275C29 114 135-8 282-8C352-8 407 16 445 62L445-200L605-200L605 550L445 550ZM317 132C241 132 189 193 189 275C189 357 241 418 317 418C389 418 444 357 444 275C444 193 389 132 317 132Z"  horiz-adv-x="666" vert-adv-y="1158"  />

      
      <glyph glyph-name="uni72" unicode="&#x72;" d="M210 457L196 550L61 550L61 0L221 0L221 233C221 373 316 414 405 404L405 555C320 563 244 528 214 456Z"  horiz-adv-x="432" vert-adv-y="1158"  />

      
      <glyph glyph-name="uni73" unicode="&#x73;" d="M475 435C443 509 365 564 252 564C135 564 27 506 26 391C27 278 151 237 236 214C299 197 323 187 323 161C323 130 300 116 259 116C218 116 173 134 143 191L12 125C48 30 135-15 257-15C366-15 481 38 481 158C481 268 405 309 291 338C202 361 184 374 184 400C184 422 206 435 247 435C291 435 327 408 344 378Z"  horiz-adv-x="508" vert-adv-y="1158"  />

      
      <glyph glyph-name="uni74" unicode="&#x74;" d="M313 140C259 140 243 159 243 224L243 425L348 425L348 550L243 550L243 689L83 659L83 550L27 550L27 425L83 425L83 169C83 63 134 0 254 0L363 0L363 140Z"  horiz-adv-x="385" vert-adv-y="1158"  />

      
      <glyph glyph-name="uni75" unicode="&#x75;" d="M406 225C406 169 367 131 310 131C253 131 214 169 214 225L214 550L54 550L54 219C54 83 158-11 310-11C462-11 563 83 564 219L566 550L406 550Z"  horiz-adv-x="620" vert-adv-y="1158"  />

      
      <glyph glyph-name="uni76" unicode="&#x76;" d="M273 236L174 550L8 550L8 545L206 0L340 0L538 545L538 550L372 550Z"  horiz-adv-x="546" vert-adv-y="1158"  />

      
      <glyph glyph-name="uni77" unicode="&#x77;" d="M558 263L449 550L377 550L268 263L176 550L9 550L9 545L206 0L300 0L413 274L525 0L620 0L817 545L817 550L650 550Z"  horiz-adv-x="826" vert-adv-y="1158"  />

      
      <glyph glyph-name="uni78" unicode="&#x78;" d="M579 5L389 287L557 545L557 550L377 550L287 393L196 550L16 550L16 545L185 287L-6 5L-6 0L175 0L287 171L398 0L579 0Z"  horiz-adv-x="573" vert-adv-y="1158"  />

      
      <glyph glyph-name="uni79" unicode="&#x79;" d="M275 239L177 550L6 550L6 544L202 0L189-44C172-101 136-112 75-95L39-224C184-270 276-244 336-63L536 544L536 550L370 550Z"  horiz-adv-x="544" vert-adv-y="1158"  />

      
      <glyph glyph-name="uni7a" unicode="&#x7a;" d="M33 550L33 415L242 415L22 10L22 0L476 0L476 135L253 135L473 540L473 550Z"  horiz-adv-x="498" vert-adv-y="1158"  />

      
      <glyph glyph-name="uni7b" unicode="&#x7b;" d="M280 210C280 251 260 285 217 300C260 313 280 349 280 390L280 510C280 614 311 631 387 640L372 760C203 762 110 698 110 508L110 414C110 380 85 366 22 359L22 241C85 234 110 223 110 186L110 106C110-84 203-163 372-161L387-41C311-32 280 0 280 105Z"  horiz-adv-x="411" vert-adv-y="1158"  />

      
      <glyph glyph-name="uni7c" unicode="&#x7c;" d="M76-200L236-200L236 750L76 750Z"  horiz-adv-x="312" vert-adv-y="1158"  />

      
      <glyph glyph-name="uni7d" unicode="&#x7d;" d="M131 108C131 3 100-29 24-38L39-158C208-160 301-81 301 109L301 189C301 226 326 237 389 244L389 362C326 369 301 383 301 417L301 511C301 701 208 765 39 763L24 643C100 634 131 617 131 513L131 393C131 352 151 316 194 303C151 288 131 254 131 213Z"  horiz-adv-x="411" vert-adv-y="1158"  />

      
      <glyph glyph-name="uni7e" unicode="&#x7e;" d="M412 387C384 352 352 332 315 332C248 332 232 415 156 415C122 415 90 400 59 363L59 220C87 253 119 275 156 275C223 275 239 192 315 192C349 192 383 207 412 242Z"  horiz-adv-x="471" vert-adv-y="1158"  />

      
      <glyph glyph-name="unia1" unicode="&#xa1;" d="M187 558C127 558 79 510 79 450C79 390 127 342 187 342C247 342 295 390 295 450C295 510 247 558 187 558ZM90-149L284-149L263 289L111 289Z"  horiz-adv-x="374" vert-adv-y="1158"  />

      
      <glyph glyph-name="unia2" unicode="&#xa2;" d="M314 216C244 216 194 272 194 351C194 430 244 486 314 486C357 486 396 459 419 420L539 482C511 545 450 594 378 613L378 700L268 700L268 618C137 598 49 495 49 351C49 208 137 105 268 85L268 0L378 0L378 90C450 109 511 157 539 220L419 283C397 245 358 216 314 216Z"  horiz-adv-x="586" vert-adv-y="1158"  />

      
      <glyph glyph-name="unia3" unicode="&#xa3;" d="M568 181C505 146 473 138 390 147C347 152 303 155 264 149C286 178 297 218 298 267L438 267L438 392L285 392L279 425C264 515 306 560 369 560C414 560 448 531 462 479L621 527C589 630 522 700 369 700C184 700 86 601 112 425L117 392L40 392L40 267L131 267C129 180 86 148 53 140L92-9C168 11 236 17 355 1C468-14 540-7 638 51Z"  horiz-adv-x="674" vert-adv-y="1158"  />

      
      <glyph glyph-name="unia4" unicode="&#xa4;" d="M534 350C534 381 528 410 516 437L604 525L499 630L412 542C385 554 355 561 323 561C291 561 261 554 234 542L147 630L42 525L130 437C118 410 112 381 112 350C112 319 118 290 130 263L42 175L147 70L234 158C261 146 291 139 323 139C355 139 385 146 412 158L499 70L604 175L516 263C528 290 534 319 534 350ZM323 260C273 260 233 300 233 350C233 400 273 440 323 440C373 440 413 400 413 350C413 300 373 260 323 260Z"  horiz-adv-x="646" vert-adv-y="1158"  />

      
      <glyph glyph-name="unia5" unicode="&#xa5;" d="M483 700L343 449L205 700L14 700L14 694L218 352L121 352L121 254L258 254L258 215L121 215L121 117L258 117L258 0L428 0L428 117L577 117L577 215L428 215L428 254L577 254L577 352L469 352L674 694L674 700Z"  horiz-adv-x="688" vert-adv-y="1158"  />

      
      <glyph glyph-name="unia6" unicode="&#xa6;" d="M236 380L236 750L76 750L76 380ZM236-200L236 170L76 170L76-200Z"  horiz-adv-x="312" vert-adv-y="1158"  />

      
      <glyph glyph-name="unia7" unicode="&#xa7;" d="M298 523C236 569 257 622 319 622C362 622 395 600 418 544L543 583C512 695 434 750 297 750C177 750 82 627 130 515C-16 419 24 282 142 194L330 53C392 7 371-46 309-46C266-46 233-24 210 32L85-7C116-119 194-174 331-174C451-174 546-51 498 61C644 157 604 294 486 382ZM264 264C171 332 155 374 212 423L364 312C457 244 473 202 416 153Z"  horiz-adv-x="628" vert-adv-y="1158"  />

      
      <glyph glyph-name="unia8" unicode="&#xa8;" d="M164 596C202 596 232 626 232 664C232 702 202 732 164 732C126 732 96 702 96 664C96 626 126 596 164 596ZM342 596C380 596 410 626 410 664C410 702 380 732 342 732C304 732 274 702 274 664C274 626 304 596 342 596Z"  horiz-adv-x="542" vert-adv-y="1158"  />

      
      <glyph glyph-name="unia9" unicode="&#xa9;" d="M401-5C600-5 757 149 757 349C757 550 600 704 401 704C203 704 46 550 46 349C46 149 203-5 401-5ZM401 108C267 108 163 215 163 349C163 483 267 591 401 591C536 591 640 484 640 349C640 215 536 108 401 108ZM463 313C451 293 428 279 406 279C369 279 344 307 344 347C344 387 369 415 406 415C427 415 450 401 463 381L555 436C531 491 472 526 406 526C303 526 233 452 233 349C233 246 303 173 406 173C472 173 531 207 555 261Z"  horiz-adv-x="803" vert-adv-y="1158"  />

      
      <glyph glyph-name="uniaa" unicode="&#xaa;" d="M204 708C132 708 65 682 30 661L69 579C98 596 142 612 183 612C235 612 269 592 273 541C248 558 216 567 180 567C83 567 15 508 15 426C15 345 83 286 180 286C216 286 249 295 274 312L274 293L394 293L394 528C394 659 319 708 204 708ZM205 371C163 371 133 394 133 428C133 461 163 485 205 485C249 485 278 461 278 428C278 394 249 371 205 371ZM394 169L394 247L31 247L31 169Z"  horiz-adv-x="425" vert-adv-y="1158"  />

      
      <glyph glyph-name="uniab" unicode="&#xab;" d="M13 272L278 43L339 104L218 275L339 446L278 507L13 278ZM278 272L543 43L604 104L483 275L604 446L543 507L278 278Z"  horiz-adv-x="645" vert-adv-y="1158"  />

      
      <glyph glyph-name="uniac" unicode="&#xac;" d="M59 230L294 230L294 113L449 113L449 370L59 370Z"  horiz-adv-x="508" vert-adv-y="1158"  />

      
      <glyph glyph-name="uniad" unicode="&#xad;" d="M434 230L434 370L59 370L59 230Z"  horiz-adv-x="493" vert-adv-y="1158"  />

      
      <glyph glyph-name="uniae" unicode="&#xae;" d="M261 704C141 704 46 611 46 489C46 368 141 274 261 274C382 274 477 368 477 489C477 611 382 704 261 704ZM261 343C180 343 117 408 117 489C117 570 180 636 261 636C343 636 406 571 406 489C406 408 343 343 261 343ZM347 527C347 565 319 591 277 591L187 591L187 396L247 396L247 459L259 459L287 396L345 396L311 467C333 476 347 498 347 527ZM271 542C282 542 290 535 290 524C290 514 282 506 271 506L247 506L247 542Z"  horiz-adv-x="523" vert-adv-y="1158"  />

      
      <glyph glyph-name="uniaf" unicode="&#xaf;" d="M374 610L374 707L96 707L96 610Z"  horiz-adv-x="496" vert-adv-y="1158"  />

      
      <glyph glyph-name="unib0" unicode="&#xb0;" d="M203 383C296 383 366 453 366 547C366 639 296 709 203 709C111 709 41 639 41 547C41 453 111 383 203 383ZM203 499C176 499 156 519 156 547C156 573 176 593 203 593C231 593 251 573 251 547C251 519 231 499 203 499Z"  horiz-adv-x="407" vert-adv-y="1158"  />

      
      <glyph glyph-name="unib1" unicode="&#xb1;" d="M329 623L206 623L206 483L65 483L65 359L206 359L206 219L329 219L329 359L470 359L470 483L329 483ZM470 55L470 179L65 179L65 55Z"  horiz-adv-x="535" vert-adv-y="1158"  />

      
      <glyph glyph-name="unib2" unicode="&#xb2;" d="M127 540C133 583 157 605 191 605C223 605 238 589 238 569C238 544 222 522 151 450L21 317L21 298L367 298L367 395L246 395L263 411C341 484 357 533 357 575C357 648 293 706 191 706C103 706 28 665 12 560Z"  horiz-adv-x="386" vert-adv-y="1158"  />

      
      <glyph glyph-name="unib3" unicode="&#xb3;" d="M284 512C315 528 337 556 337 596C337 659 284 706 171 706C85 706 37 668 9 626L78 566C99 592 131 609 172 609C207 609 223 601 223 580C223 562 200 549 137 549L115 549L115 467L161 467C216 467 243 457 243 430C243 403 218 388 182 388C144 388 104 401 82 424L2 364C23 331 85 291 174 291C299 291 356 341 356 412C356 463 326 500 284 512Z"  horiz-adv-x="373" vert-adv-y="1158"  />

      
      <glyph glyph-name="unib4" unicode="&#xb4;" d="M114 600L250 600L395 750L212 750Z"  horiz-adv-x="565" vert-adv-y="1158"  />

      
      <glyph glyph-name="unib5" unicode="&#xb5;" d="M583 140L583 550L423 550L423 241C423 173 382 129 322 129C262 129 221 173 221 241L221 550L61 550L61-200L221-200L221 67C260 20 318-5 386-5C425-5 459 3 487 19L487 0L666 0L666 140Z"  horiz-adv-x="688" vert-adv-y="1158"  />

      
      <glyph glyph-name="unib6" unicode="&#xb6;" d="M398-1L398 569L460 569L460-1L602-1L602 700L256 700C133 700 50 623 50 509C50 396 133 319 256 317L256-1Z"  horiz-adv-x="678" vert-adv-y="1158"  />

      
      <glyph glyph-name="unib7" unicode="&#xb7;" d="M167 198C227 198 275 246 275 306C275 366 227 414 167 414C107 414 59 366 59 306C59 246 107 198 167 198Z"  horiz-adv-x="334" vert-adv-y="1158"  />

      
      <glyph glyph-name="unib8" unicode="&#xb8;" d="M290 9L290 17L202 17L182-77C217-84 232-94 232-111C232-126 224-132 202-132C181-132 149-120 125-108L96-168C127-187 172-201 212-201C287-201 327-163 327-115C327-92 314-60 272-51Z"  horiz-adv-x="468" vert-adv-y="1158"  />

      
      <glyph glyph-name="unib9" unicode="&#xb9;" d="M253 700L172 700L10 559L77 487L134 538L134 396L37 396L37 300L329 300L329 396L253 396Z"  horiz-adv-x="331" vert-adv-y="1158"  />

      
      <glyph glyph-name="uniba" unicode="&#xba;" d="M226 283C348 283 435 371 435 497C435 622 348 710 226 710C105 710 17 622 17 497C17 371 105 283 226 283ZM226 390C173 390 132 435 132 497C132 558 173 603 226 603C279 603 320 558 320 497C320 435 279 390 226 390ZM54 169L398 169L398 247L54 247Z"  horiz-adv-x="452" vert-adv-y="1158"  />

      
      <glyph glyph-name="unibb" unicode="&#xbb;" d="M102 507L41 446L162 275L41 104L102 43L367 272L367 278ZM367 507L306 446L427 275L306 104L367 43L632 272L632 278Z"  horiz-adv-x="645" vert-adv-y="1158"  />

      
      <glyph glyph-name="unibc" unicode="&#xbc;" d="M256 700L94 559L161 487L218 538L218 396L121 396L121 300L413 300L413 396L337 396L337 700ZM760 696L602 696L432 472L432 459L573 459L760 691ZM740 146L740 396L636 396L415 142L415 53L626 53L626-4L740-4L740 53L786 53L786 146ZM629 251L629 146L537 146L628 251ZM68-4L226-4L396 220L396 233L255 233L68 1Z"  horiz-adv-x="831" vert-adv-y="1158"  />

      
      <glyph glyph-name="unibd" unicode="&#xbd;" d="M192 398L95 398L95 302L387 302L387 398L311 398L311 702L230 702L68 561L135 489L192 540ZM763 700L605 700L435 476L435 463L576 463L763 695ZM704 113C782 186 798 235 798 277C798 350 734 408 632 408C544 408 469 367 453 262L568 242C574 285 598 307 632 307C664 307 679 291 679 271C679 246 663 224 592 152L462 19L462 0L808 0L808 97L687 97ZM71 0L229 0L399 224L399 237L258 237L71 5Z"  horiz-adv-x="835" vert-adv-y="1158"  />

      
      <glyph glyph-name="unibe" unicode="&#xbe;" d="M423 412C423 463 393 500 351 512C382 528 404 556 404 596C404 659 351 706 238 706C152 706 104 668 76 626L145 566C166 592 198 609 239 609C274 609 290 601 290 580C290 562 267 549 204 549L182 549L182 467L228 467C283 467 310 457 310 430C310 403 285 388 249 388C211 388 171 401 149 424L69 364C90 331 152 291 241 291C366 291 423 341 423 412ZM822 700L664 700L494 476L494 463L635 463L822 695ZM798 150L798 400L694 400L473 146L473 57L684 57L684 0L798 0L798 57L844 57L844 150ZM687 255L687 150L595 150L686 255ZM130 0L288 0L458 224L458 237L317 237L130 5Z"  horiz-adv-x="889" vert-adv-y="1158"  />

      
      <glyph glyph-name="unibf" unicode="&#xbf;" d="M253 558C198 558 155 515 155 460C155 406 198 362 253 362C307 362 351 406 351 460C351 515 307 558 253 558ZM176 315C179 218 0 189 0 20C0-96 81-157 217-159C357-161 456-88 480 46L329 83C310 15 278-14 237-14C191-14 168 4 168 39C168 136 336 147 330 315Z"  horiz-adv-x="483" vert-adv-y="1158"  />

      
      <glyph glyph-name="unic0" unicode="&#xc0;" d="M335 900L152 900L297 750L433 750ZM287 700L-7 8L-7 0L168 0L210 109L488 109L530 0L705 0L705 8L411 700ZM349 469L436 244L262 244Z"  horiz-adv-x="698" vert-adv-y="1158"  />

      
      <glyph glyph-name="unic1" unicode="&#xc1;" d="M369 900L271 750L407 750L552 900ZM287 700L-7 8L-7 0L168 0L210 109L488 109L530 0L705 0L705 8L411 700ZM349 469L436 244L262 244Z"  horiz-adv-x="698" vert-adv-y="1158"  />

      
      <glyph glyph-name="unic2" unicode="&#xc2;" d="M422 734L498 806L349 935L200 806L276 734L349 807ZM287 700L-7 8L-7 0L168 0L210 109L488 109L530 0L705 0L705 8L411 700ZM349 469L436 244L262 244Z"  horiz-adv-x="698" vert-adv-y="1158"  />

      
      <glyph glyph-name="unic3" unicode="&#xc3;" d="M300 796C339 796 338 739 401 739C443 739 486 767 511 806L459 864C444 846 428 831 404 831C368 831 365 888 304 888C258 888 220 857 191 820L243 762C257 781 276 796 300 796ZM287 700L-7 8L-7 0L168 0L210 109L488 109L530 0L705 0L705 8L411 700ZM349 469L436 244L262 244Z"  horiz-adv-x="698" vert-adv-y="1158"  />

      
      <glyph glyph-name="unic4" unicode="&#xc4;" d="M260 746C298 746 328 776 328 814C328 852 298 882 260 882C222 882 192 852 192 814C192 776 222 746 260 746ZM438 746C476 746 506 776 506 814C506 852 476 882 438 882C400 882 370 852 370 814C370 776 400 746 438 746ZM287 700L-7 8L-7 0L168 0L210 109L488 109L530 0L705 0L705 8L411 700ZM349 469L436 244L262 244Z"  horiz-adv-x="698" vert-adv-y="1158"  />

      
      <glyph glyph-name="unic5" unicode="&#xc5;" d="M349 727C418 727 470 778 470 845C470 913 418 964 349 964C280 964 228 913 228 845C228 778 280 727 349 727ZM349 898C377 898 399 875 399 845C399 815 377 792 349 792C321 792 299 815 299 845C299 875 321 898 349 898ZM287 700L-7 8L-7 0L168 0L210 109L488 109L530 0L705 0L705 8L411 700ZM349 469L436 244L262 244Z"  horiz-adv-x="698" vert-adv-y="1158"  />

      
      <glyph glyph-name="unic6" unicode="&#xc6;" d="M1007 700L469 700L-37 9L-37 0L156 0L233 109L506 109L506 0L1007 0L1007 145L676 145L676 287L947 287L947 426L676 426L676 555L1007 555ZM506 493L506 244L329 244Z"  horiz-adv-x="1072" vert-adv-y="1158"  />

      
      <glyph glyph-name="unic7" unicode="&#xc7;" d="M400 141C287 141 201 228 201 350C201 472 287 559 400 559C458 559 510 534 537 504L638 615C582 679 497 712 390 712C188 712 36 558 36 350C36 158 166 12 345-9L328-88C363-95 378-105 378-122C378-137 370-143 348-143C327-143 295-131 271-119L242-179C273-198 318-212 358-212C433-212 473-174 473-126C473-103 460-71 418-62L434-10C520-2 590 30 638 85L537 196C510 166 458 141 400 141Z"  horiz-adv-x="650" vert-adv-y="1158"  />

      
      <glyph glyph-name="unic8" unicode="&#xc8;" d="M143 900L288 750L424 750L326 900ZM577 700L76 700L76 0L577 0L577 145L246 145L246 287L517 287L517 426L246 426L246 555L577 555Z"  horiz-adv-x="642" vert-adv-y="1158"  />

      
      <glyph glyph-name="unic9" unicode="&#xc9;" d="M262 750L398 750L543 900L360 900ZM577 700L76 700L76 0L577 0L577 145L246 145L246 287L517 287L517 426L246 426L246 555L577 555Z"  horiz-adv-x="642" vert-adv-y="1158"  />

      
      <glyph glyph-name="unica" unicode="&#xca;" d="M191 806L267 734L340 807L413 734L489 806L340 935ZM577 700L76 700L76 0L577 0L577 145L246 145L246 287L517 287L517 426L246 426L246 555L577 555Z"  horiz-adv-x="642" vert-adv-y="1158"  />

      
      <glyph glyph-name="unicb" unicode="&#xcb;" d="M251 746C289 746 319 776 319 814C319 852 289 882 251 882C213 882 183 852 183 814C183 776 213 746 251 746ZM429 746C467 746 497 776 497 814C497 852 467 882 429 882C391 882 361 852 361 814C361 776 391 746 429 746ZM577 700L76 700L76 0L577 0L577 145L246 145L246 287L517 287L517 426L246 426L246 555L577 555Z"  horiz-adv-x="642" vert-adv-y="1158"  />

      
      <glyph glyph-name="unicc" unicode="&#xcc;" d="M-36 900L109 750L245 750L147 900ZM76 0L246 0L246 700L76 700Z"  horiz-adv-x="322" vert-adv-y="1158"  />

      
      <glyph glyph-name="unicd" unicode="&#xcd;" d="M83 750L219 750L364 900L181 900ZM76 0L246 0L246 700L76 700Z"  horiz-adv-x="322" vert-adv-y="1158"  />

      
      <glyph glyph-name="unice" unicode="&#xce;" d="M12 806L88 734L161 807L234 734L310 806L161 935ZM76 0L246 0L246 700L76 700Z"  horiz-adv-x="322" vert-adv-y="1158"  />

      
      <glyph glyph-name="unicf" unicode="&#xcf;" d="M72 746C110 746 140 776 140 814C140 852 110 882 72 882C34 882 4 852 4 814C4 776 34 746 72 746ZM250 746C288 746 318 776 318 814C318 852 288 882 250 882C212 882 182 852 182 814C182 776 212 746 250 746ZM76 0L246 0L246 700L76 700Z"  horiz-adv-x="322" vert-adv-y="1158"  />

      
      <glyph glyph-name="unid0" unicode="&#xd0;" d="M76 700L76 413L18 413L18 287L76 287L76 0L324 0C561 0 699 127 699 350C699 573 561 700 324 700ZM246 145L246 287L350 287L350 413L246 413L246 555L332 555C455 555 529 481 529 350C529 219 455 145 332 145Z"  horiz-adv-x="735" vert-adv-y="1158"  />

      
      <glyph glyph-name="unid1" unicode="&#xd1;" d="M287 762C301 781 320 796 344 796C383 796 382 739 445 739C487 739 530 767 555 806L503 864C488 846 472 831 448 831C412 831 409 888 348 888C302 888 264 857 235 820ZM709 700L542 700L542 300L199 700L76 700L76 0L243 0L243 400L586 0L709 0Z"  horiz-adv-x="785" vert-adv-y="1158"  />

      
      <glyph glyph-name="unid2" unicode="&#xd2;" d="M201 912L346 762L482 762L384 912ZM398-12C603-12 760 143 760 350C760 557 603 712 398 712C193 712 36 557 36 350C36 143 193-12 398-12ZM398 148C289 148 206 234 206 350C206 466 289 552 398 552C507 552 590 466 590 350C590 234 507 148 398 148Z"  horiz-adv-x="796" vert-adv-y="1158"  />

      
      <glyph glyph-name="unid3" unicode="&#xd3;" d="M320 762L456 762L601 912L418 912ZM398-12C603-12 760 143 760 350C760 557 603 712 398 712C193 712 36 557 36 350C36 143 193-12 398-12ZM398 148C289 148 206 234 206 350C206 466 289 552 398 552C507 552 590 466 590 350C590 234 507 148 398 148Z"  horiz-adv-x="796" vert-adv-y="1158"  />

      
      <glyph glyph-name="unid4" unicode="&#xd4;" d="M249 818L325 746L398 819L471 746L547 818L398 947ZM398-12C603-12 760 143 760 350C760 557 603 712 398 712C193 712 36 557 36 350C36 143 193-12 398-12ZM398 148C289 148 206 234 206 350C206 466 289 552 398 552C507 552 590 466 590 350C590 234 507 148 398 148Z"  horiz-adv-x="796" vert-adv-y="1158"  />

      
      <glyph glyph-name="unid5" unicode="&#xd5;" d="M292 774C306 793 325 808 349 808C388 808 387 751 450 751C492 751 535 779 560 818L508 876C493 858 477 843 453 843C417 843 414 900 353 900C307 900 269 869 240 832ZM398-12C603-12 760 143 760 350C760 557 603 712 398 712C193 712 36 557 36 350C36 143 193-12 398-12ZM398 148C289 148 206 234 206 350C206 466 289 552 398 552C507 552 590 466 590 350C590 234 507 148 398 148Z"  horiz-adv-x="796" vert-adv-y="1158"  />

      
      <glyph glyph-name="unid6" unicode="&#xd6;" d="M309 758C347 758 377 788 377 826C377 864 347 894 309 894C271 894 241 864 241 826C241 788 271 758 309 758ZM487 758C525 758 555 788 555 826C555 864 525 894 487 894C449 894 419 864 419 826C419 788 449 758 487 758ZM398-12C603-12 760 143 760 350C760 557 603 712 398 712C193 712 36 557 36 350C36 143 193-12 398-12ZM398 148C289 148 206 234 206 350C206 466 289 552 398 552C507 552 590 466 590 350C590 234 507 148 398 148Z"  horiz-adv-x="796" vert-adv-y="1158"  />

      
      <glyph glyph-name="unid7" unicode="&#xd7;" d="M368 512L255 399L142 512L43 413L156 300L43 186L142 87L255 200L368 87L467 186L354 300L467 413Z"  horiz-adv-x="510" vert-adv-y="1158"  />

      
      <glyph glyph-name="unid8" unicode="&#xd8;" d="M752 700L584 700L564 674C515 699 458 712 398 712C193 712 36 557 36 350C36 254 70 170 126 106L44 0L213 0L233 25C282 1 338-12 398-12C603-12 760 143 760 350C760 446 726 530 670 594ZM206 350C206 466 289 552 398 552C421 552 442 548 462 541L233 244C216 275 206 311 206 350ZM398 148C376 148 355 152 335 158L564 455C580 425 590 389 590 350C590 234 507 148 398 148Z"  horiz-adv-x="796" vert-adv-y="1158"  />

      
      <glyph glyph-name="unid9" unicode="&#xd9;" d="M183 900L328 750L464 750L366 900ZM519 292C519 201 468 146 380 146C292 146 241 201 241 292L241 700L71 700L73 281C74 101 187-12 380-12C573-12 689 101 689 281L689 700L519 700Z"  horiz-adv-x="760" vert-adv-y="1158"  />

      
      <glyph glyph-name="unida" unicode="&#xda;" d="M302 750L438 750L583 900L400 900ZM519 292C519 201 468 146 380 146C292 146 241 201 241 292L241 700L71 700L73 281C74 101 187-12 380-12C573-12 689 101 689 281L689 700L519 700Z"  horiz-adv-x="760" vert-adv-y="1158"  />

      
      <glyph glyph-name="unidb" unicode="&#xdb;" d="M231 806L307 734L380 807L453 734L529 806L380 935ZM519 292C519 201 468 146 380 146C292 146 241 201 241 292L241 700L71 700L73 281C74 101 187-12 380-12C573-12 689 101 689 281L689 700L519 700Z"  horiz-adv-x="760" vert-adv-y="1158"  />

      
      <glyph glyph-name="unidc" unicode="&#xdc;" d="M291 746C329 746 359 776 359 814C359 852 329 882 291 882C253 882 223 852 223 814C223 776 253 746 291 746ZM469 746C507 746 537 776 537 814C537 852 507 882 469 882C431 882 401 852 401 814C401 776 431 746 469 746ZM519 292C519 201 468 146 380 146C292 146 241 201 241 292L241 700L71 700L73 281C74 101 187-12 380-12C573-12 689 101 689 281L689 700L519 700Z"  horiz-adv-x="760" vert-adv-y="1158"  />

      
      <glyph glyph-name="unidd" unicode="&#xdd;" d="M254 750L390 750L535 900L352 900ZM331 449L193 700L2 700L2 694L246 284L246 0L416 0L416 284L662 694L662 700L471 700Z"  horiz-adv-x="664" vert-adv-y="1158"  />

      
      <glyph glyph-name="unide" unicode="&#xde;" d="M246 567L246 700L76 700L76 0L246 0L246 133L342 133C488 133 579 211 579 350C579 489 488 567 342 567ZM246 278L246 422L331 422C380 422 409 395 409 350C409 305 380 278 331 278Z"  horiz-adv-x="615" vert-adv-y="1158"  />

      
      <glyph glyph-name="unidf" unicode="&#xdf;" d="M437 399C473 418 496 464 496 523C496 632 415 704 279 704C143 704 61 624 61 472L61 0L219 0L219 481C219 537 250 557 283 557C316 557 340 533 340 499C340 462 317 439 285 439L284 439L284 307L327 307C379 307 411 273 411 224C411 173 382 140 334 140C316 140 300 142 286 145L259 11C288 2 330-3 374-3C486-3 570 86 570 203C570 315 512 381 437 399Z"  horiz-adv-x="599" vert-adv-y="1158"  />

      
      <glyph glyph-name="unie0" unicode="&#xe0;" d="M288 761L105 761L250 611L386 611ZM281 561C184 561 93 526 46 497L98 387C138 410 197 431 253 431C322 431 368 405 374 335C340 357 297 370 248 370C118 370 25 290 25 180C25 70 118-10 248-10C297-10 341 3 375 25L375 0L538 0L538 317C538 495 437 561 281 561ZM283 105C226 105 185 137 185 182C185 227 226 259 283 259C342 259 381 227 381 182C381 137 342 105 283 105Z"  horiz-adv-x="589" vert-adv-y="1158"  />

      
      <glyph glyph-name="unie1" unicode="&#xe1;" d="M322 761L224 611L360 611L505 761ZM281 561C184 561 93 526 46 497L98 387C138 410 197 431 253 431C322 431 368 405 374 335C340 357 297 370 248 370C118 370 25 290 25 180C25 70 118-10 248-10C297-10 341 3 375 25L375 0L538 0L538 317C538 495 437 561 281 561ZM283 105C226 105 185 137 185 182C185 227 226 259 283 259C342 259 381 227 381 182C381 137 342 105 283 105Z"  horiz-adv-x="589" vert-adv-y="1158"  />

      
      <glyph glyph-name="unie2" unicode="&#xe2;" d="M375 595L451 667L302 796L153 667L229 595L302 668ZM281 561C184 561 93 526 46 497L98 387C138 410 197 431 253 431C322 431 368 405 374 335C340 357 297 370 248 370C118 370 25 290 25 180C25 70 118-10 248-10C297-10 341 3 375 25L375 0L538 0L538 317C538 495 437 561 281 561ZM283 105C226 105 185 137 185 182C185 227 226 259 283 259C342 259 381 227 381 182C381 137 342 105 283 105Z"  horiz-adv-x="589" vert-adv-y="1158"  />

      
      <glyph glyph-name="unie3" unicode="&#xe3;" d="M253 657C292 657 291 600 354 600C396 600 439 628 464 667L412 725C397 707 381 692 357 692C321 692 318 749 257 749C211 749 173 718 144 681L196 623C210 642 229 657 253 657ZM281 561C184 561 93 526 46 497L98 387C138 410 197 431 253 431C322 431 368 405 374 335C340 357 297 370 248 370C118 370 25 290 25 180C25 70 118-10 248-10C297-10 341 3 375 25L375 0L538 0L538 317C538 495 437 561 281 561ZM283 105C226 105 185 137 185 182C185 227 226 259 283 259C342 259 381 227 381 182C381 137 342 105 283 105Z"  horiz-adv-x="589" vert-adv-y="1158"  />

      
      <glyph glyph-name="unie4" unicode="&#xe4;" d="M213 607C251 607 281 637 281 675C281 713 251 743 213 743C175 743 145 713 145 675C145 637 175 607 213 607ZM391 607C429 607 459 637 459 675C459 713 429 743 391 743C353 743 323 713 323 675C323 637 353 607 391 607ZM281 561C184 561 93 526 46 497L98 387C138 410 197 431 253 431C322 431 368 405 374 335C340 357 297 370 248 370C118 370 25 290 25 180C25 70 118-10 248-10C297-10 341 3 375 25L375 0L538 0L538 317C538 495 437 561 281 561ZM283 105C226 105 185 137 185 182C185 227 226 259 283 259C342 259 381 227 381 182C381 137 342 105 283 105Z"  horiz-adv-x="589" vert-adv-y="1158"  />

      
      <glyph glyph-name="unie5" unicode="&#xe5;" d="M302 588C371 588 423 639 423 706C423 774 371 825 302 825C233 825 181 774 181 706C181 639 233 588 302 588ZM302 759C330 759 352 736 352 706C352 676 330 653 302 653C274 653 252 676 252 706C252 736 274 759 302 759ZM281 561C184 561 93 526 46 497L98 387C138 410 197 431 253 431C322 431 368 405 374 335C340 357 297 370 248 370C118 370 25 290 25 180C25 70 118-10 248-10C297-10 341 3 375 25L375 0L538 0L538 317C538 495 437 561 281 561ZM283 105C226 105 185 137 185 182C185 227 226 259 283 259C342 259 381 227 381 182C381 137 342 105 283 105Z"  horiz-adv-x="589" vert-adv-y="1158"  />

      
      <glyph glyph-name="unie6" unicode="&#xe6;" d="M671 560C597 560 532 534 484 490C439 540 369 561 281 561C184 561 93 526 46 497L98 387C138 410 197 431 253 431C322 431 368 405 374 335C340 357 297 370 248 370C118 370 25 290 25 180C25 70 118-10 248-10C297-10 341 3 375 25L375 0L538 0L538 22C577 2 622-10 671-10C769-10 844 31 895 101L773 185C749 152 712 132 670 132C615 132 571 163 551 214L940 214C963 390 857 560 671 560ZM670 416C735 416 774 374 787 324L548 324C564 381 610 416 670 416ZM283 105C226 105 185 137 185 182C185 227 226 259 283 259C342 259 381 227 381 182C381 137 342 105 283 105Z"  horiz-adv-x="972" vert-adv-y="1158"  />

      
      <glyph glyph-name="unie7" unicode="&#xe7;" d="M310 132C235 132 182 191 182 275C182 359 235 418 310 418C355 418 397 389 421 348L549 414C510 500 414 561 310 561C144 561 29 444 29 275C29 118 128 6 275-9L258-88C293-95 308-105 308-122C308-137 300-143 278-143C257-143 225-131 201-119L172-179C203-198 248-212 288-212C363-212 403-174 403-126C403-103 390-71 348-62L365-5C447 12 517 65 549 136L421 203C398 162 356 132 310 132Z"  horiz-adv-x="576" vert-adv-y="1158"  />

      
      <glyph glyph-name="unie8" unicode="&#xe8;" d="M292 760L109 760L254 610L390 610ZM306 560C146 560 29 438 29 275C29 113 146-10 306-10C404-10 479 31 530 101L408 185C384 152 347 132 305 132C250 132 206 163 186 214L575 214C598 390 492 560 306 560ZM305 416C370 416 409 374 422 324L183 324C199 381 245 416 305 416Z"  horiz-adv-x="607" vert-adv-y="1158"  />

      
      <glyph glyph-name="unie9" unicode="&#xe9;" d="M326 760L228 610L364 610L509 760ZM306 560C146 560 29 438 29 275C29 113 146-10 306-10C404-10 479 31 530 101L408 185C384 152 347 132 305 132C250 132 206 163 186 214L575 214C598 390 492 560 306 560ZM305 416C370 416 409 374 422 324L183 324C199 381 245 416 305 416Z"  horiz-adv-x="607" vert-adv-y="1158"  />

      
      <glyph glyph-name="uniea" unicode="&#xea;" d="M379 594L455 666L306 795L157 666L233 594L306 667ZM306 560C146 560 29 438 29 275C29 113 146-10 306-10C404-10 479 31 530 101L408 185C384 152 347 132 305 132C250 132 206 163 186 214L575 214C598 390 492 560 306 560ZM305 416C370 416 409 374 422 324L183 324C199 381 245 416 305 416Z"  horiz-adv-x="607" vert-adv-y="1158"  />

      
      <glyph glyph-name="unieb" unicode="&#xeb;" d="M217 606C255 606 285 636 285 674C285 712 255 742 217 742C179 742 149 712 149 674C149 636 179 606 217 606ZM395 606C433 606 463 636 463 674C463 712 433 742 395 742C357 742 327 712 327 674C327 636 357 606 395 606ZM306 560C146 560 29 438 29 275C29 113 146-10 306-10C404-10 479 31 530 101L408 185C384 152 347 132 305 132C250 132 206 163 186 214L575 214C598 390 492 560 306 560ZM305 416C370 416 409 374 422 324L183 324C199 381 245 416 305 416Z"  horiz-adv-x="607" vert-adv-y="1158"  />

      
      <glyph glyph-name="uniec" unicode="&#xec;" d="M-56 750L89 600L225 600L127 750ZM221 0L221 550L61 550L61 0Z"  horiz-adv-x="282" vert-adv-y="1158"  />

      
      <glyph glyph-name="unied" unicode="&#xed;" d="M63 600L199 600L344 750L161 750ZM221 0L221 550L61 550L61 0Z"  horiz-adv-x="282" vert-adv-y="1158"  />

      
      <glyph glyph-name="uniee" unicode="&#xee;" d="M-8 656L68 584L141 657L214 584L290 656L141 785ZM221 0L221 550L61 550L61 0Z"  horiz-adv-x="282" vert-adv-y="1158"  />

      
      <glyph glyph-name="unief" unicode="&#xef;" d="M52 596C90 596 120 626 120 664C120 702 90 732 52 732C14 732-16 702-16 664C-16 626 14 596 52 596ZM230 596C268 596 298 626 298 664C298 702 268 732 230 732C192 732 162 702 162 664C162 626 192 596 230 596ZM221 0L221 550L61 550L61 0Z"  horiz-adv-x="282" vert-adv-y="1158"  />

      
      <glyph glyph-name="unif0" unicode="&#xf0;" d="M429 668L354 759L273 694C234 719 190 741 144 761L75 623C100 613 124 603 147 592L86 543L160 456L251 528C279 505 305 477 329 442C308 450 283 454 249 454C132 454 29 363 29 231C29 90 144-11 292-11C434-11 550 93 550 237C550 383 485 516 369 621ZM290 136C236 136 193 177 193 230C193 285 236 328 290 328C344 328 386 285 386 230C386 177 344 136 290 136Z"  horiz-adv-x="579" vert-adv-y="1158"  />

      
      <glyph glyph-name="unif1" unicode="&#xf1;" d="M284 646C323 646 322 589 385 589C427 589 470 617 495 656L443 714C428 696 412 681 388 681C352 681 349 738 288 738C242 738 204 707 175 670L227 612C241 631 260 646 284 646ZM383 560C316 560 260 535 221 490L221 550L61 550L61 0L221 0L221 314C221 380 262 426 322 426C382 426 423 380 423 314L423 0L583 0L583 324C583 479 511 560 383 560Z"  horiz-adv-x="634" vert-adv-y="1158"  />

      
      <glyph glyph-name="unif2" unicode="&#xf2;" d="M114 763L259 613L395 613L297 763ZM311-13C475-13 593 106 593 275C593 444 475 563 311 563C147 563 29 444 29 275C29 106 147-13 311-13ZM311 131C239 131 184 192 184 275C184 358 239 419 311 419C383 419 438 358 438 275C438 192 383 131 311 131Z"  horiz-adv-x="622" vert-adv-y="1158"  />

      
      <glyph glyph-name="unif3" unicode="&#xf3;" d="M233 613L369 613L514 763L331 763ZM311-13C475-13 593 106 593 275C593 444 475 563 311 563C147 563 29 444 29 275C29 106 147-13 311-13ZM311 131C239 131 184 192 184 275C184 358 239 419 311 419C383 419 438 358 438 275C438 192 383 131 311 131Z"  horiz-adv-x="622" vert-adv-y="1158"  />

      
      <glyph glyph-name="unif4" unicode="&#xf4;" d="M162 669L238 597L311 670L384 597L460 669L311 798ZM311-13C475-13 593 106 593 275C593 444 475 563 311 563C147 563 29 444 29 275C29 106 147-13 311-13ZM311 131C239 131 184 192 184 275C184 358 239 419 311 419C383 419 438 358 438 275C438 192 383 131 311 131Z"  horiz-adv-x="622" vert-adv-y="1158"  />

      
      <glyph glyph-name="unif5" unicode="&#xf5;" d="M205 625C219 644 238 659 262 659C301 659 300 602 363 602C405 602 448 630 473 669L421 727C406 709 390 694 366 694C330 694 327 751 266 751C220 751 182 720 153 683ZM311-13C475-13 593 106 593 275C593 444 475 563 311 563C147 563 29 444 29 275C29 106 147-13 311-13ZM311 131C239 131 184 192 184 275C184 358 239 419 311 419C383 419 438 358 438 275C438 192 383 131 311 131Z"  horiz-adv-x="622" vert-adv-y="1158"  />

      
      <glyph glyph-name="unif6" unicode="&#xf6;" d="M222 609C260 609 290 639 290 677C290 715 260 745 222 745C184 745 154 715 154 677C154 639 184 609 222 609ZM400 609C438 609 468 639 468 677C468 715 438 745 400 745C362 745 332 715 332 677C332 639 362 609 400 609ZM311-13C475-13 593 106 593 275C593 444 475 563 311 563C147 563 29 444 29 275C29 106 147-13 311-13ZM311 131C239 131 184 192 184 275C184 358 239 419 311 419C383 419 438 358 438 275C438 192 383 131 311 131Z"  horiz-adv-x="622" vert-adv-y="1158"  />

      
      <glyph glyph-name="unif7" unicode="&#xf7;" d="M323 419C375 419 417 461 417 513C417 565 375 607 323 607C271 607 229 565 229 513C229 461 271 419 323 419ZM587 230L587 370L59 370L59 230ZM323-7C375-7 417 35 417 87C417 139 375 181 323 181C271 181 229 139 229 87C229 35 271-7 323-7Z"  horiz-adv-x="646" vert-adv-y="1158"  />

      
      <glyph glyph-name="unif8" unicode="&#xf8;" d="M590 550L458 550L445 533C406 552 360 563 311 563C147 563 29 444 29 275C29 198 54 131 96 81L34 0L167 0L180 16C218-3 263-13 311-13C475-13 593 106 593 275C593 352 569 418 527 468ZM184 275C184 358 239 419 311 419C325 419 339 417 352 412L196 211C188 230 184 251 184 275ZM311 131C297 131 285 133 273 137L426 337C434 319 438 298 438 275C438 192 383 131 311 131Z"  horiz-adv-x="622" vert-adv-y="1158"  />

      
      <glyph glyph-name="unif9" unicode="&#xf9;" d="M113 750L258 600L394 600L296 750ZM406 225C406 169 367 131 310 131C253 131 214 169 214 225L214 550L54 550L54 219C54 83 158-11 310-11C462-11 563 83 564 219L566 550L406 550Z"  horiz-adv-x="620" vert-adv-y="1158"  />

      
      <glyph glyph-name="unifa" unicode="&#xfa;" d="M232 600L368 600L513 750L330 750ZM406 225C406 169 367 131 310 131C253 131 214 169 214 225L214 550L54 550L54 219C54 83 158-11 310-11C462-11 563 83 564 219L566 550L406 550Z"  horiz-adv-x="620" vert-adv-y="1158"  />

      
      <glyph glyph-name="unifb" unicode="&#xfb;" d="M161 656L237 584L310 657L383 584L459 656L310 785ZM406 225C406 169 367 131 310 131C253 131 214 169 214 225L214 550L54 550L54 219C54 83 158-11 310-11C462-11 563 83 564 219L566 550L406 550Z"  horiz-adv-x="620" vert-adv-y="1158"  />

      
      <glyph glyph-name="unifc" unicode="&#xfc;" d="M221 596C259 596 289 626 289 664C289 702 259 732 221 732C183 732 153 702 153 664C153 626 183 596 221 596ZM399 596C437 596 467 626 467 664C467 702 437 732 399 732C361 732 331 702 331 664C331 626 361 596 399 596ZM406 225C406 169 367 131 310 131C253 131 214 169 214 225L214 550L54 550L54 219C54 83 158-11 310-11C462-11 563 83 564 219L566 550L406 550Z"  horiz-adv-x="620" vert-adv-y="1158"  />

      
      <glyph glyph-name="unifd" unicode="&#xfd;" d="M293 750L195 600L331 600L476 750ZM275 239L177 550L6 550L6 544L202 0L189-44C172-101 136-112 75-95L39-224C184-270 276-244 336-63L536 544L536 550L370 550Z"  horiz-adv-x="544" vert-adv-y="1158"  />

      
      <glyph glyph-name="unife" unicode="&#xfe;" d="M384 558C314 558 259 534 221 488L221 751L61 751L61-200L221-200L221 62C259 16 314-8 384-8C531-8 637 114 637 275C637 436 531 558 384 558ZM349 132C277 132 222 193 222 275C222 357 277 418 349 418C425 418 477 357 477 275C477 193 425 132 349 132Z"  horiz-adv-x="666" vert-adv-y="1158"  />

      
      <glyph glyph-name="uniff" unicode="&#xff;" d="M184 596C222 596 252 626 252 664C252 702 222 732 184 732C146 732 116 702 116 664C116 626 146 596 184 596ZM362 596C400 596 430 626 430 664C430 702 400 732 362 732C324 732 294 702 294 664C294 626 324 596 362 596ZM275 239L177 550L6 550L6 544L202 0L189-44C172-101 136-112 75-95L39-224C184-270 276-244 336-63L536 544L536 550L370 550Z"  horiz-adv-x="544" vert-adv-y="1158"  />

      
      <glyph glyph-name="uni0100" unicode="&#x0100;" d="M210 857L210 760L488 760L488 857ZM287 700L-7 8L-7 0L168 0L210 109L488 109L530 0L705 0L705 8L411 700ZM349 469L436 244L262 244Z"  horiz-adv-x="698" vert-adv-y="1158"  />

      
      <glyph glyph-name="uni0101" unicode="&#x0101;" d="M163 718L163 621L441 621L441 718ZM281 561C184 561 93 526 46 497L98 387C138 410 197 431 253 431C322 431 368 405 374 335C340 357 297 370 248 370C118 370 25 290 25 180C25 70 118-10 248-10C297-10 341 3 375 25L375 0L538 0L538 317C538 495 437 561 281 561ZM283 105C226 105 185 137 185 182C185 227 226 259 283 259C342 259 381 227 381 182C381 137 342 105 283 105Z"  horiz-adv-x="589" vert-adv-y="1158"  />

      
      <glyph glyph-name="uni0102" unicode="&#x0102;" d="M349 732C430 732 483 785 491 875L387 890C386 849 372 827 349 827C326 827 312 849 311 890L207 875C215 785 268 732 349 732ZM287 700L-7 8L-7 0L168 0L210 109L488 109L530 0L705 0L705 8L411 700ZM349 469L436 244L262 244Z"  horiz-adv-x="698" vert-adv-y="1158"  />

      
      <glyph glyph-name="uni0103" unicode="&#x0103;" d="M302 593C383 593 436 646 444 736L340 751C339 710 325 688 302 688C279 688 265 710 264 751L160 736C168 646 221 593 302 593ZM281 561C184 561 93 526 46 497L98 387C138 410 197 431 253 431C322 431 368 405 374 335C340 357 297 370 248 370C118 370 25 290 25 180C25 70 118-10 248-10C297-10 341 3 375 25L375 0L538 0L538 317C538 495 437 561 281 561ZM283 105C226 105 185 137 185 182C185 227 226 259 283 259C342 259 381 227 381 182C381 137 342 105 283 105Z"  horiz-adv-x="589" vert-adv-y="1158"  />

      
      <glyph glyph-name="uni0104" unicode="&#x0104;" d="M707-108C698-126 685-144 659-144C633-144 619-130 619-100C619-69 651-23 705 0L705 8L411 700L287 700L-7 8L-7 0L168 0L210 109L488 109L530 0L585 0C549-29 521-71 521-119C521-182 565-228 637-228C702-228 750-196 771-134ZM349 469L436 244L262 244Z"  horiz-adv-x="698" vert-adv-y="1158"  />

      
      <glyph glyph-name="uni0105" unicode="&#x0105;" d="M540-108C531-126 518-144 492-144C466-144 452-130 452-100C452-69 484-23 538 0L538 317C538 495 437 561 281 561C184 561 93 526 46 497L98 387C138 410 197 431 253 431C322 431 368 405 374 335C340 357 297 370 248 370C118 370 25 290 25 180C25 70 118-10 248-10C297-10 341 3 375 25L375 0L418 0C382-29 354-71 354-119C354-182 398-228 470-228C535-228 583-196 604-134ZM283 105C226 105 185 137 185 182C185 227 226 259 283 259C342 259 381 227 381 182C381 137 342 105 283 105Z"  horiz-adv-x="589" vert-adv-y="1158"  />

      
      <glyph glyph-name="uni0106" unicode="&#x0106;" d="M312 761L448 761L593 911L410 911ZM400 141C287 141 201 228 201 350C201 472 287 559 400 559C458 559 510 534 537 504L638 615C582 679 497 712 390 712C188 712 36 558 36 350C36 142 188-12 390-12C497-12 582 21 638 85L537 196C510 166 458 141 400 141Z"  horiz-adv-x="650" vert-adv-y="1158"  />

      
      <glyph glyph-name="uni0107" unicode="&#x0107;" d="M232 611L368 611L513 761L330 761ZM29 275C29 106 144-11 310-11C414-11 510 50 549 136L421 203C398 162 356 132 310 132C235 132 182 191 182 275C182 359 235 418 310 418C355 418 397 389 421 348L549 414C510 500 414 561 310 561C144 561 29 444 29 275Z"  horiz-adv-x="576" vert-adv-y="1158"  />

      
      <glyph glyph-name="uni0108" unicode="&#x0108;" d="M241 817L317 745L390 818L463 745L539 817L390 946ZM400 141C287 141 201 228 201 350C201 472 287 559 400 559C458 559 510 534 537 504L638 615C582 679 497 712 390 712C188 712 36 558 36 350C36 142 188-12 390-12C497-12 582 21 638 85L537 196C510 166 458 141 400 141Z"  horiz-adv-x="650" vert-adv-y="1158"  />

      
      <glyph glyph-name="uni0109" unicode="&#x0109;" d="M161 667L237 595L310 668L383 595L459 667L310 796ZM29 275C29 106 144-11 310-11C414-11 510 50 549 136L421 203C398 162 356 132 310 132C235 132 182 191 182 275C182 359 235 418 310 418C355 418 397 389 421 348L549 414C510 500 414 561 310 561C144 561 29 444 29 275Z"  horiz-adv-x="576" vert-adv-y="1158"  />

      
      <glyph glyph-name="uni010A" unicode="&#x010A;" d="M390 757C428 757 458 787 458 825C458 863 428 893 390 893C352 893 322 863 322 825C322 787 352 757 390 757ZM400 141C287 141 201 228 201 350C201 472 287 559 400 559C458 559 510 534 537 504L638 615C582 679 497 712 390 712C188 712 36 558 36 350C36 142 188-12 390-12C497-12 582 21 638 85L537 196C510 166 458 141 400 141Z"  horiz-adv-x="650" vert-adv-y="1158"  />

      
      <glyph glyph-name="uni010B" unicode="&#x010B;" d="M310 607C348 607 378 637 378 675C378 713 348 743 310 743C272 743 242 713 242 675C242 637 272 607 310 607ZM29 275C29 106 144-11 310-11C414-11 510 50 549 136L421 203C398 162 356 132 310 132C235 132 182 191 182 275C182 359 235 418 310 418C355 418 397 389 421 348L549 414C510 500 414 561 310 561C144 561 29 444 29 275Z"  horiz-adv-x="576" vert-adv-y="1158"  />

      
      <glyph glyph-name="uni010C" unicode="&#x010C;" d="M539 874L463 946L390 873L317 946L241 874L390 745ZM400 141C287 141 201 228 201 350C201 472 287 559 400 559C458 559 510 534 537 504L638 615C582 679 497 712 390 712C188 712 36 558 36 350C36 142 188-12 390-12C497-12 582 21 638 85L537 196C510 166 458 141 400 141Z"  horiz-adv-x="650" vert-adv-y="1158"  />

      
      <glyph glyph-name="uni010D" unicode="&#x010D;" d="M459 724L383 796L310 723L237 796L161 724L310 595ZM29 275C29 106 144-11 310-11C414-11 510 50 549 136L421 203C398 162 356 132 310 132C235 132 182 191 182 275C182 359 235 418 310 418C355 418 397 389 421 348L549 414C510 500 414 561 310 561C144 561 29 444 29 275Z"  horiz-adv-x="576" vert-adv-y="1158"  />

      
      <glyph glyph-name="uni010E" unicode="&#x010E;" d="M505 863L429 935L356 862L283 935L207 863L356 734ZM76 700L76 0L324 0C561 0 699 127 699 350C699 573 561 700 324 700ZM246 145L246 555L332 555C455 555 529 481 529 350C529 219 455 145 332 145Z"  horiz-adv-x="735" vert-adv-y="1158"  />

      
      <glyph glyph-name="uni010F" unicode="&#x010F;" d="M673 502L756 502L800 649L800 751L673 751ZM445 488C407 534 352 558 282 558C135 558 29 436 29 275C29 114 135-8 282-8C352-8 407 16 445 62L445 0L605 0L605 750L445 750ZM317 132C241 132 189 193 189 275C189 357 241 418 317 418C389 418 444 357 444 275C444 193 389 132 317 132Z"  horiz-adv-x="799" vert-adv-y="1158"  />

      
      <glyph glyph-name="uni0110" unicode="&#x0110;" d="M76 700L76 413L18 413L18 287L76 287L76 0L324 0C561 0 699 127 699 350C699 573 561 700 324 700ZM246 145L246 287L350 287L350 413L246 413L246 555L332 555C455 555 529 481 529 350C529 219 455 145 332 145Z"  horiz-adv-x="735" vert-adv-y="1158"  />

      
      <glyph glyph-name="uni0111" unicode="&#x0111;" d="M605 696L605 750L445 750L445 696L338 696L338 582L445 582L445 488C407 534 352 558 282 558C135 558 29 436 29 275C29 114 135-8 282-8C352-8 407 16 445 62L445 0L605 0L605 582L659 582L659 696ZM317 132C241 132 189 193 189 275C189 357 241 418 317 418C389 418 444 357 444 275C444 193 389 132 317 132Z"  horiz-adv-x="666" vert-adv-y="1158"  />

      
      <glyph glyph-name="uni0112" unicode="&#x0112;" d="M479 760L479 857L201 857L201 760ZM577 700L76 700L76 0L577 0L577 145L246 145L246 287L517 287L517 426L246 426L246 555L577 555Z"  horiz-adv-x="642" vert-adv-y="1158"  />

      
      <glyph glyph-name="uni0113" unicode="&#x0113;" d="M167 717L167 620L445 620L445 717ZM306 560C146 560 29 438 29 275C29 113 146-10 306-10C404-10 479 31 530 101L408 185C384 152 347 132 305 132C250 132 206 163 186 214L575 214C598 390 492 560 306 560ZM305 416C370 416 409 374 422 324L183 324C199 381 245 416 305 416Z"  horiz-adv-x="607" vert-adv-y="1158"  />

      
      <glyph glyph-name="uni0114" unicode="&#x0114;" d="M340 732C421 732 474 785 482 875L378 890C377 849 363 827 340 827C317 827 303 849 302 890L198 875C206 785 259 732 340 732ZM577 700L76 700L76 0L577 0L577 145L246 145L246 287L517 287L517 426L246 426L246 555L577 555Z"  horiz-adv-x="642" vert-adv-y="1158"  />

      
      <glyph glyph-name="uni0115" unicode="&#x0115;" d="M306 592C387 592 440 645 448 735L344 750C343 709 329 687 306 687C283 687 269 709 268 750L164 735C172 645 225 592 306 592ZM306 560C146 560 29 438 29 275C29 113 146-10 306-10C404-10 479 31 530 101L408 185C384 152 347 132 305 132C250 132 206 163 186 214L575 214C598 390 492 560 306 560ZM305 416C370 416 409 374 422 324L183 324C199 381 245 416 305 416Z"  horiz-adv-x="607" vert-adv-y="1158"  />

      
      <glyph glyph-name="uni0116" unicode="&#x0116;" d="M340 746C378 746 408 776 408 814C408 852 378 882 340 882C302 882 272 852 272 814C272 776 302 746 340 746ZM577 700L76 700L76 0L577 0L577 145L246 145L246 287L517 287L517 426L246 426L246 555L577 555Z"  horiz-adv-x="642" vert-adv-y="1158"  />

      
      <glyph glyph-name="uni0117" unicode="&#x0117;" d="M306 606C344 606 374 636 374 674C374 712 344 742 306 742C268 742 238 712 238 674C238 636 268 606 306 606ZM306 560C146 560 29 438 29 275C29 113 146-10 306-10C404-10 479 31 530 101L408 185C384 152 347 132 305 132C250 132 206 163 186 214L575 214C598 390 492 560 306 560ZM305 416C370 416 409 374 422 324L183 324C199 381 245 416 305 416Z"  horiz-adv-x="607" vert-adv-y="1158"  />

      
      <glyph glyph-name="uni0118" unicode="&#x0118;" d="M579-108C570-126 557-144 531-144C505-144 491-130 491-100C491-69 523-23 577 0L577 145L246 145L246 287L517 287L517 426L246 426L246 555L577 555L577 700L76 700L76 0L457 0C421-29 393-71 393-119C393-182 437-228 509-228C574-228 622-196 643-134Z"  horiz-adv-x="642" vert-adv-y="1158"  />

      
      <glyph glyph-name="uni0119" unicode="&#x0119;" d="M306 560C146 560 29 438 29 275C29 138 113 29 236-2C200-30 172-72 172-120C172-183 216-229 288-229C353-229 401-197 422-135L358-109C349-127 336-145 310-145C284-145 270-131 270-101C270-73 296-33 341-8C422 1 485 40 530 101L408 185C384 152 347 132 305 132C250 132 206 163 186 214L575 214C598 390 492 560 306 560ZM305 416C370 416 409 374 422 324L183 324C199 381 245 416 305 416Z"  horiz-adv-x="607" vert-adv-y="1158"  />

      
      <glyph glyph-name="uni011A" unicode="&#x011A;" d="M489 863L413 935L340 862L267 935L191 863L340 734ZM577 700L76 700L76 0L577 0L577 145L246 145L246 287L517 287L517 426L246 426L246 555L577 555Z"  horiz-adv-x="642" vert-adv-y="1158"  />

      
      <glyph glyph-name="uni011B" unicode="&#x011B;" d="M379 795L306 722L233 795L157 723L306 594L455 723ZM306 560C146 560 29 438 29 275C29 113 146-10 306-10C404-10 479 31 530 101L408 185C384 152 347 132 305 132C250 132 206 163 186 214L575 214C598 390 492 560 306 560ZM305 416C370 416 409 374 422 324L183 324C199 381 245 416 305 416Z"  horiz-adv-x="607" vert-adv-y="1158"  />

      
      <glyph glyph-name="uni011C" unicode="&#x011C;" d="M472 745L548 817L399 946L250 817L326 745L399 818ZM413 419L413 286L579 286C564 202 493 146 402 146C291 146 209 226 209 350C209 474 291 558 402 558C455 558 519 529 556 486L668 585C607 661 500 711 399 711C189 711 36 560 36 350C36 140 189-12 399-12C621-12 769 166 738 419Z"  horiz-adv-x="778" vert-adv-y="1158"  />

      
      <glyph glyph-name="uni011D" unicode="&#x011D;" d="M350 594L426 666L277 795L128 666L204 594L277 667ZM601 557C530 557 473 545 437 508C396 541 341 560 277 560C138 560 38 468 38 340C38 280 60 227 99 189C62 164 30 128 30 69C30-11 102-63 228-63L335-63C391-63 406-72 406-95C406-118 378-130 307-130C193-130 111-99 65-77L1-202C61-236 161-274 307-274C481-274 566-201 566-90C566 22 496 77 362 77L261 77C211 77 197 87 197 103C197 111 201 120 210 129C231 124 254 121 277 121C416 121 516 213 516 340C516 361 513 382 508 401C536 409 569 412 601 412ZM277 258C228 258 193 292 193 340C193 388 228 422 277 422C326 422 361 388 361 340C361 292 326 258 277 258Z"  horiz-adv-x="607" vert-adv-y="1158"  />

      
      <glyph glyph-name="uni011E" unicode="&#x011E;" d="M399 743C480 743 533 796 541 886L437 901C436 860 422 838 399 838C376 838 362 860 361 901L257 886C265 796 318 743 399 743ZM413 419L413 286L579 286C564 202 493 146 402 146C291 146 209 226 209 350C209 474 291 558 402 558C455 558 519 529 556 486L668 585C607 661 500 711 399 711C189 711 36 560 36 350C36 140 189-12 399-12C621-12 769 166 738 419Z"  horiz-adv-x="778" vert-adv-y="1158"  />

      
      <glyph glyph-name="uni011F" unicode="&#x011F;" d="M277 592C358 592 411 645 419 735L315 750C314 709 300 687 277 687C254 687 240 709 239 750L135 735C143 645 196 592 277 592ZM601 557C530 557 473 545 437 508C396 541 341 560 277 560C138 560 38 468 38 340C38 280 60 227 99 189C62 164 30 128 30 69C30-11 102-63 228-63L335-63C391-63 406-72 406-95C406-118 378-130 307-130C193-130 111-99 65-77L1-202C61-236 161-274 307-274C481-274 566-201 566-90C566 22 496 77 362 77L261 77C211 77 197 87 197 103C197 111 201 120 210 129C231 124 254 121 277 121C416 121 516 213 516 340C516 361 513 382 508 401C536 409 569 412 601 412ZM277 258C228 258 193 292 193 340C193 388 228 422 277 422C326 422 361 388 361 340C361 292 326 258 277 258Z"  horiz-adv-x="607" vert-adv-y="1158"  />

      
      <glyph glyph-name="uni0120" unicode="&#x0120;" d="M399 757C437 757 467 787 467 825C467 863 437 893 399 893C361 893 331 863 331 825C331 787 361 757 399 757ZM413 419L413 286L579 286C564 202 493 146 402 146C291 146 209 226 209 350C209 474 291 558 402 558C455 558 519 529 556 486L668 585C607 661 500 711 399 711C189 711 36 560 36 350C36 140 189-12 399-12C621-12 769 166 738 419Z"  horiz-adv-x="778" vert-adv-y="1158"  />

      
      <glyph glyph-name="uni0121" unicode="&#x0121;" d="M277 606C315 606 345 636 345 674C345 712 315 742 277 742C239 742 209 712 209 674C209 636 239 606 277 606ZM601 557C530 557 473 545 437 508C396 541 341 560 277 560C138 560 38 468 38 340C38 280 60 227 99 189C62 164 30 128 30 69C30-11 102-63 228-63L335-63C391-63 406-72 406-95C406-118 378-130 307-130C193-130 111-99 65-77L1-202C61-236 161-274 307-274C481-274 566-201 566-90C566 22 496 77 362 77L261 77C211 77 197 87 197 103C197 111 201 120 210 129C231 124 254 121 277 121C416 121 516 213 516 340C516 361 513 382 508 401C536 409 569 412 601 412ZM277 258C228 258 193 292 193 340C193 388 228 422 277 422C326 422 361 388 361 340C361 292 326 258 277 258Z"  horiz-adv-x="607" vert-adv-y="1158"  />

      
      <glyph glyph-name="uni0122" unicode="&#x0122;" d="M413 419L413 286L579 286C564 202 493 146 402 146C291 146 209 226 209 350C209 474 291 558 402 558C455 558 519 529 556 486L668 585C607 661 500 711 399 711C189 711 36 560 36 350C36 140 189-12 399-12C621-12 769 166 738 419ZM421-240L462-130L462-54L342-54L342-240Z"  horiz-adv-x="778" vert-adv-y="1158"  />

      
      <glyph glyph-name="uni0123" unicode="&#x0123;" d="M282 769L207 610L338 610L398 769ZM601 557C530 557 473 545 437 508C396 541 341 560 277 560C138 560 38 468 38 340C38 280 60 227 99 189C62 164 30 128 30 69C30-11 102-63 228-63L335-63C391-63 406-72 406-95C406-118 378-130 307-130C193-130 111-99 65-77L1-202C61-236 161-274 307-274C481-274 566-201 566-90C566 22 496 77 362 77L261 77C211 77 197 87 197 103C197 111 201 120 210 129C231 124 254 121 277 121C416 121 516 213 516 340C516 361 513 382 508 401C536 409 569 412 601 412ZM277 258C228 258 193 292 193 340C193 388 228 422 277 422C326 422 361 388 361 340C361 292 326 258 277 258Z"  horiz-adv-x="607" vert-adv-y="1158"  />

      
      <glyph glyph-name="uni0124" unicode="&#x0124;" d="M458 734L534 806L385 935L236 806L312 734L385 807ZM524 439L246 439L246 700L76 700L76 0L246 0L246 294L524 294L524 0L694 0L694 700L524 700Z"  horiz-adv-x="770" vert-adv-y="1158"  />

      
      <glyph glyph-name="uni0125" unicode="&#x0125;" d="M214 784L290 856L141 985L-8 856L68 784L141 857ZM386 555C318 555 260 530 221 483L221 750L61 750L61 0L221 0L221 309C221 377 262 421 322 421C382 421 423 377 423 309L423 0L583 0L583 309C583 467 514 555 386 555Z"  horiz-adv-x="634" vert-adv-y="1158"  />

      
      <glyph glyph-name="uni0126" unicode="&#x0126;" d="M694 616L694 700L524 700L524 616L246 616L246 700L76 700L76 616L31 616L31 500L76 500L76 0L246 0L246 294L524 294L524 0L694 0L694 500L737 500L737 616ZM246 439L246 500L524 500L524 439Z"  horiz-adv-x="770" vert-adv-y="1158"  />

      
      <glyph glyph-name="uni0127" unicode="&#x0127;" d="M386 555C318 555 260 530 221 483L221 577L328 577L328 691L221 691L221 750L61 750L61 691L7 691L7 577L61 577L61 0L221 0L221 309C221 377 262 421 322 421C382 421 423 377 423 309L423 0L583 0L583 309C583 467 514 555 386 555Z"  horiz-adv-x="634" vert-adv-y="1158"  />

      
      <glyph glyph-name="uni0128" unicode="&#x0128;" d="M55 762C69 781 88 796 112 796C151 796 150 739 213 739C255 739 298 767 323 806L271 864C256 846 240 831 216 831C180 831 177 888 116 888C70 888 32 857 3 820ZM76 0L246 0L246 700L76 700Z"  horiz-adv-x="322" vert-adv-y="1158"  />

      
      <glyph glyph-name="uni0129" unicode="&#x0129;" d="M35 612C49 631 68 646 92 646C131 646 130 589 193 589C235 589 278 617 303 656L251 714C236 696 220 681 196 681C160 681 157 738 96 738C50 738 12 707-17 670ZM221 0L221 550L61 550L61 0Z"  horiz-adv-x="282" vert-adv-y="1158"  />

      
      <glyph glyph-name="uni012A" unicode="&#x012A;" d="M300 760L300 857L22 857L22 760ZM76 0L246 0L246 700L76 700Z"  horiz-adv-x="322" vert-adv-y="1158"  />

      
      <glyph glyph-name="uni012B" unicode="&#x012B;" d="M280 610L280 707L2 707L2 610ZM221 0L221 550L61 550L61 0Z"  horiz-adv-x="282" vert-adv-y="1158"  />

      
      <glyph glyph-name="uni012C" unicode="&#x012C;" d="M199 890C198 849 184 827 161 827C138 827 124 849 123 890L19 875C27 785 80 732 161 732C242 732 295 785 303 875ZM246 0L246 700L76 700L76 0Z"  horiz-adv-x="322" vert-adv-y="1158"  />

      
      <glyph glyph-name="uni012D" unicode="&#x012D;" d="M179 740C178 699 164 677 141 677C118 677 104 699 103 740L-1 725C7 635 60 582 141 582C222 582 275 635 283 725ZM221 0L221 550L61 550L61 0Z"  horiz-adv-x="282" vert-adv-y="1158"  />

      
      <glyph glyph-name="uni012E" unicode="&#x012E;" d="M248-108C239-126 226-144 200-144C174-144 160-130 160-100C160-69 192-23 246 0L246 700L76 700L76 0L126 0C90-29 62-71 62-119C62-182 106-228 178-228C243-228 291-196 312-134Z"  horiz-adv-x="322" vert-adv-y="1158"  />

      
      <glyph glyph-name="uni012F" unicode="&#x012F;" d="M141 596C179 596 209 626 209 664C209 702 179 732 141 732C103 732 73 702 73 664C73 626 103 596 141 596ZM223-108C214-126 201-144 175-144C149-144 135-130 135-100C135-69 167-23 221 0L221 550L61 550L61 0L101 0C65-29 37-71 37-119C37-182 81-228 153-228C218-228 266-196 287-134Z"  horiz-adv-x="282" vert-adv-y="1158"  />

      
      <glyph glyph-name="uni0130" unicode="&#x0130;" d="M161 746C199 746 229 776 229 814C229 852 199 882 161 882C123 882 93 852 93 814C93 776 123 746 161 746ZM76 0L246 0L246 700L76 700Z"  horiz-adv-x="322" vert-adv-y="1158"  />

      
      <glyph glyph-name="uni0131" unicode="&#x0131;" d="M221 0L221 550L61 550L61 0Z"  horiz-adv-x="282" vert-adv-y="1158"  />

      
      <glyph glyph-name="uni0132" unicode="&#x0132;" d="M76 0L246 0L246 700L76 700ZM310 146C346 40 434-11 550-11C695-11 782 72 782 220L782 700L612 700L612 220C612 163 581 140 542 140C501 140 473 166 462 206Z"  horiz-adv-x="854" vert-adv-y="1158"  />

      
      <glyph glyph-name="uni0133" unicode="&#x0133;" d="M141 604C195 604 237 646 237 700C237 754 195 796 141 796C87 796 45 754 45 700C45 646 87 604 141 604ZM409 604C463 604 505 646 505 700C505 753 463 795 409 795C355 795 313 753 313 700C313 646 355 604 409 604ZM221 0L221 550L61 550L61 0ZM163-208C204-232 258-254 315-254C408-254 489-196 489-67L489 550L329 550L329-41C329-86 310-106 281-106C259-106 235-97 221-91Z"  horiz-adv-x="550" vert-adv-y="1158"  />

      
      <glyph glyph-name="uni0134" unicode="&#x0134;" d="M226 806L302 734L375 807L448 734L524 806L375 935ZM-12 146C24 40 112-11 228-11C373-11 460 72 460 220L460 700L290 700L290 220C290 163 259 140 220 140C179 140 151 166 140 206Z"  horiz-adv-x="532" vert-adv-y="1158"  />

      
      <glyph glyph-name="uni0135" unicode="&#x0135;" d="M-8 656L68 584L141 657L214 584L290 656L141 785ZM-105-208C-64-232-10-254 47-254C140-254 221-196 221-67L221 550L61 550L61-41C61-86 42-106 13-106C-9-106-33-97-47-91Z"  horiz-adv-x="282" vert-adv-y="1158"  />

      
      <glyph glyph-name="uni0136" unicode="&#x0136;" d="M682 695L682 700L474 700L246 434L246 700L76 700L76 0L246 0L246 300L488 0L694 0L694 5L394 371ZM385-228L426-118L426-42L306-42L306-228Z"  horiz-adv-x="697" vert-adv-y="1158"  />

      
      <glyph glyph-name="uni0137" unicode="&#x0137;" d="M582 546L582 550L386 550L221 345L221 750L61 750L61 0L221 0L221 254L396 0L586 0L586 4L375 301ZM343-228L384-118L384-42L264-42L264-228Z"  horiz-adv-x="580" vert-adv-y="1158"  />

      
      <glyph glyph-name="uni0139" unicode="&#x0139;" d="M86 750L222 750L367 900L184 900ZM246 700L76 700L76 0L536 0L536 145L246 145Z"  horiz-adv-x="569" vert-adv-y="1158"  />

      
      <glyph glyph-name="uni013A" unicode="&#x013A;" d="M63 800L199 800L344 950L161 950ZM221 0L221 750L61 750L61 0Z"  horiz-adv-x="282" vert-adv-y="1158"  />

      
      <glyph glyph-name="uni013B" unicode="&#x013B;" d="M246 700L76 700L76 0L536 0L536 145L246 145ZM256-228L335-228L376-118L376-42L256-42Z"  horiz-adv-x="569" vert-adv-y="1158"  />

      
      <glyph glyph-name="uni013C" unicode="&#x013C;" d="M221 0L221 750L61 750L61 0ZM84-228L163-228L204-118L204-42L84-42Z"  horiz-adv-x="282" vert-adv-y="1158"  />

      
      <glyph glyph-name="uni013D" unicode="&#x013D;" d="M246 700L76 700L76 0L536 0L536 145L246 145ZM416 443L493 443L533 595L533 700L416 700Z"  horiz-adv-x="569" vert-adv-y="1158"  />

      
      <glyph glyph-name="uni013E" unicode="&#x013E;" d="M281 502L364 502L408 649L408 751L281 751ZM221 0L221 750L61 750L61 0Z"  horiz-adv-x="407" vert-adv-y="1158"  />

      
      <glyph glyph-name="uni013F" unicode="&#x013F;" d="M246 700L76 700L76 0L536 0L536 145L246 145ZM397 307C439 307 473 340 473 382C473 424 439 458 397 458C355 458 321 424 321 382C321 340 355 307 397 307Z"  horiz-adv-x="569" vert-adv-y="1158"  />

      
      <glyph glyph-name="uni0140" unicode="&#x0140;" d="M221 0L221 750L61 750L61 0ZM336 259C378 259 412 292 412 334C412 376 378 410 336 410C294 410 260 376 260 334C260 292 294 259 336 259Z"  horiz-adv-x="401" vert-adv-y="1158"  />

      
      <glyph glyph-name="uni0141" unicode="&#x0141;" d="M246 304L391 410L391 570L246 464L246 700L76 700L76 339L9 290L9 130L76 179L76 0L536 0L536 145L246 145Z"  horiz-adv-x="569" vert-adv-y="1158"  />

      
      <glyph glyph-name="uni0142" unicode="&#x0142;" d="M241 495L241 750L81 750L81 355L12 295L12 146L81 206L81 0L241 0L241 346L310 406L310 555Z"  horiz-adv-x="320" vert-adv-y="1158"  />

      
      <glyph glyph-name="uni0143" unicode="&#x0143;" d="M315 750L451 750L596 900L413 900ZM709 700L542 700L542 300L199 700L76 700L76 0L243 0L243 400L586 0L709 0Z"  horiz-adv-x="785" vert-adv-y="1158"  />

      
      <glyph glyph-name="uni0144" unicode="&#x0144;" d="M353 750L255 600L391 600L536 750ZM383 560C316 560 260 535 221 490L221 550L61 550L61 0L221 0L221 314C221 380 262 426 322 426C382 426 423 380 423 314L423 0L583 0L583 324C583 479 511 560 383 560Z"  horiz-adv-x="634" vert-adv-y="1158"  />

      
      <glyph glyph-name="uni0145" unicode="&#x0145;" d="M709 700L542 700L542 300L199 700L76 700L76 0L243 0L243 400L586 0L709 0ZM336-228L415-228L456-118L456-42L336-42Z"  horiz-adv-x="785" vert-adv-y="1158"  />

      
      <glyph glyph-name="uni0146" unicode="&#x0146;" d="M383 560C316 560 260 535 221 490L221 550L61 550L61 0L221 0L221 314C221 380 262 426 322 426C382 426 423 380 423 314L423 0L583 0L583 324C583 479 511 560 383 560ZM346-228L387-118L387-42L267-42L267-228Z"  horiz-adv-x="634" vert-adv-y="1158"  />

      
      <glyph glyph-name="uni0147" unicode="&#x0147;" d="M542 863L466 935L393 862L320 935L244 863L393 734ZM709 700L542 700L542 300L199 700L76 700L76 0L243 0L243 400L586 0L709 0Z"  horiz-adv-x="785" vert-adv-y="1158"  />

      
      <glyph glyph-name="uni0148" unicode="&#x0148;" d="M406 785L333 712L260 785L184 713L333 584L482 713ZM383 560C316 560 260 535 221 490L221 550L61 550L61 0L221 0L221 314C221 380 262 426 322 426C382 426 423 380 423 314L423 0L583 0L583 324C583 479 511 560 383 560Z"  horiz-adv-x="634" vert-adv-y="1158"  />

      
      <glyph glyph-name="uni0149" unicode="&#x0149;" d="M108 825L70 589L174 589L242 825ZM383 560C316 560 260 535 221 490L221 550L61 550L61 0L221 0L221 314C221 380 262 426 322 426C382 426 423 380 423 314L423 0L583 0L583 324C583 479 511 560 383 560Z"  horiz-adv-x="634" vert-adv-y="1158"  />

      
      <glyph glyph-name="uni014A" unicode="&#x014A;" d="M542 300L199 700L76 700L76 0L243 0L243 400L549 43L549-42C549-119 493-127 423-81L360-197C488-301 709-270 709-74L709 700L542 700Z"  horiz-adv-x="785" vert-adv-y="1158"  />

      
      <glyph glyph-name="uni014B" unicode="&#x014B;" d="M383 560C316 560 260 535 221 490L221 550L61 550L61 0L221 0L221 314C221 380 262 426 322 426C382 426 423 380 423 314L423-42C423-119 367-127 297-81L234-197C362-301 583-270 583-74L583 324C583 479 511 560 383 560Z"  horiz-adv-x="634" vert-adv-y="1158"  />

      
      <glyph glyph-name="uni014C" unicode="&#x014C;" d="M537 772L537 869L259 869L259 772ZM398-12C603-12 760 143 760 350C760 557 603 712 398 712C193 712 36 557 36 350C36 143 193-12 398-12ZM398 148C289 148 206 234 206 350C206 466 289 552 398 552C507 552 590 466 590 350C590 234 507 148 398 148Z"  horiz-adv-x="796" vert-adv-y="1158"  />

      
      <glyph glyph-name="uni014D" unicode="&#x014D;" d="M450 623L450 720L172 720L172 623ZM311-13C475-13 593 106 593 275C593 444 475 563 311 563C147 563 29 444 29 275C29 106 147-13 311-13ZM311 131C239 131 184 192 184 275C184 358 239 419 311 419C383 419 438 358 438 275C438 192 383 131 311 131Z"  horiz-adv-x="622" vert-adv-y="1158"  />

      
      <glyph glyph-name="uni014E" unicode="&#x014E;" d="M398 744C479 744 532 797 540 887L436 902C435 861 421 839 398 839C375 839 361 861 360 902L256 887C264 797 317 744 398 744ZM398 712C193 712 36 557 36 350C36 143 193-12 398-12C603-12 760 143 760 350C760 557 603 712 398 712ZM398 148C289 148 206 234 206 350C206 466 289 552 398 552C507 552 590 466 590 350C590 234 507 148 398 148Z"  horiz-adv-x="796" vert-adv-y="1158"  />

      
      <glyph glyph-name="uni014F" unicode="&#x014F;" d="M311 595C392 595 445 648 453 738L349 753C348 712 334 690 311 690C288 690 274 712 273 753L169 738C177 648 230 595 311 595ZM311 563C147 563 29 444 29 275C29 106 147-13 311-13C475-13 593 106 593 275C593 444 475 563 311 563ZM311 131C239 131 184 192 184 275C184 358 239 419 311 419C383 419 438 358 438 275C438 192 383 131 311 131Z"  horiz-adv-x="622" vert-adv-y="1158"  />

      
      <glyph glyph-name="uni0150" unicode="&#x0150;" d="M348 932L282 762L365 762L448 932ZM479 932L413 762L496 762L579 932ZM398-12C603-12 760 143 760 350C760 557 603 712 398 712C193 712 36 557 36 350C36 143 193-12 398-12ZM398 148C289 148 206 234 206 350C206 466 289 552 398 552C507 552 590 466 590 350C590 234 507 148 398 148Z"  horiz-adv-x="796" vert-adv-y="1158"  />

      
      <glyph glyph-name="uni0151" unicode="&#x0151;" d="M261 783L195 613L278 613L361 783ZM392 783L326 613L409 613L492 783ZM311-13C475-13 593 106 593 275C593 444 475 563 311 563C147 563 29 444 29 275C29 106 147-13 311-13ZM311 131C239 131 184 192 184 275C184 358 239 419 311 419C383 419 438 358 438 275C438 192 383 131 311 131Z"  horiz-adv-x="622" vert-adv-y="1158"  />

      
      <glyph glyph-name="uni0152" unicode="&#x0152;" d="M977 700L402 700C168 700 36 573 36 350C36 127 168 0 402 0L977 0L977 145L646 145L646 287L917 287L917 426L646 426L646 555L977 555ZM394 145C274 145 206 219 206 350C206 481 274 555 394 555L476 555L476 145Z"  horiz-adv-x="1042" vert-adv-y="1158"  />

      
      <glyph glyph-name="uni0153" unicode="&#x0153;" d="M614 560C556 560 503 544 460 516C417 544 365 561 310 561C144 561 29 444 29 275C29 106 144-11 310-11C365-11 417 6 460 34C504 6 556-10 614-10C712-10 787 31 838 101L716 185C692 152 655 132 613 132C558 132 514 163 494 214L883 214C906 390 800 560 614 560ZM182 275C182 359 235 418 310 418C329 418 348 413 364 404C347 366 337 322 337 275C337 228 347 185 365 146C348 137 329 132 310 132C235 132 182 191 182 275ZM491 324C507 381 553 416 613 416C678 416 717 374 730 324Z"  horiz-adv-x="915" vert-adv-y="1158"  />

      
      <glyph glyph-name="uni0154" unicode="&#x0154;" d="M358 900L260 750L396 750L541 900ZM511 264C595 297 641 371 641 473C641 613 552 700 400 700L76 700L76 0L246 0L246 245L346 245L476 0L656 0L656 8ZM378 555C437 555 471 522 471 473C471 423 437 390 378 390L246 390L246 555Z"  horiz-adv-x="685" vert-adv-y="1158"  />

      
      <glyph glyph-name="uni0155" unicode="&#x0155;" d="M275 750L177 600L313 600L458 750ZM210 457L196 550L61 550L61 0L221 0L221 233C221 373 316 414 405 404L405 555C320 563 244 528 214 456Z"  horiz-adv-x="432" vert-adv-y="1158"  />

      
      <glyph glyph-name="uni0156" unicode="&#x0156;" d="M511 264C595 297 641 371 641 473C641 613 552 700 400 700L76 700L76 0L246 0L246 245L346 245L476 0L656 0L656 8ZM378 555C437 555 471 522 471 473C471 423 437 390 378 390L246 390L246 555ZM377-228L418-118L418-42L298-42L298-228Z"  horiz-adv-x="685" vert-adv-y="1158"  />

      
      <glyph glyph-name="uni0157" unicode="&#x0157;" d="M210 457L196 550L61 550L61 0L221 0L221 233C221 373 316 414 405 404L405 555C320 563 244 528 214 456ZM163-228L204-118L204-42L84-42L84-228Z"  horiz-adv-x="432" vert-adv-y="1158"  />

      
      <glyph glyph-name="uni0158" unicode="&#x0158;" d="M411 935L338 862L265 935L189 863L338 734L487 863ZM511 264C595 297 641 371 641 473C641 613 552 700 400 700L76 700L76 0L246 0L246 245L346 245L476 0L656 0L656 8ZM378 555C437 555 471 522 471 473C471 423 437 390 378 390L246 390L246 555Z"  horiz-adv-x="685" vert-adv-y="1158"  />

      
      <glyph glyph-name="uni0159" unicode="&#x0159;" d="M328 785L255 712L182 785L106 713L255 584L404 713ZM210 457L196 550L61 550L61 0L221 0L221 233C221 373 316 414 405 404L405 555C320 563 244 528 214 456Z"  horiz-adv-x="432" vert-adv-y="1158"  />

      
      <glyph glyph-name="uni015A" unicode="&#x015A;" d="M231 761L367 761L512 911L329 911ZM571 552C529 642 442 712 301 712C170 712 44 653 44 514C44 374 172 327 278 293C383 259 415 233 415 193C415 155 383 135 326 135C261 135 208 169 167 248L30 171C74 51 182-12 316-12C440-12 582 50 582 200C582 332 490 380 359 419C235 456 211 478 211 513C211 549 243 566 295 566C355 566 401 534 428 483Z"  horiz-adv-x="628" vert-adv-y="1158"  />

      
      <glyph glyph-name="uni015B" unicode="&#x015B;" d="M174 613L310 613L455 763L272 763ZM475 435C443 509 365 564 252 564C135 564 27 506 26 391C27 278 151 237 236 214C299 197 323 187 323 161C323 130 300 116 259 116C218 116 173 134 143 191L12 125C48 30 135-15 257-15C366-15 481 38 481 158C481 268 405 309 291 338C202 361 184 374 184 400C184 422 206 435 247 435C291 435 327 408 344 378Z"  horiz-adv-x="508" vert-adv-y="1158"  />

      
      <glyph glyph-name="uni015C" unicode="&#x015C;" d="M160 817L236 745L309 818L382 745L458 817L309 946ZM571 552C529 642 442 712 301 712C170 712 44 653 44 514C44 374 172 327 278 293C383 259 415 233 415 193C415 155 383 135 326 135C261 135 208 169 167 248L30 171C74 51 182-12 316-12C440-12 582 50 582 200C582 332 490 380 359 419C235 456 211 478 211 513C211 549 243 566 295 566C355 566 401 534 428 483Z"  horiz-adv-x="628" vert-adv-y="1158"  />

      
      <glyph glyph-name="uni015D" unicode="&#x015D;" d="M103 669L179 597L252 670L325 597L401 669L252 798ZM475 435C443 509 365 564 252 564C135 564 27 506 26 391C27 278 151 237 236 214C299 197 323 187 323 161C323 130 300 116 259 116C218 116 173 134 143 191L12 125C48 30 135-15 257-15C366-15 481 38 481 158C481 268 405 309 291 338C202 361 184 374 184 400C184 422 206 435 247 435C291 435 327 408 344 378Z"  horiz-adv-x="508" vert-adv-y="1158"  />

      
      <glyph glyph-name="uni015E" unicode="&#x015E;" d="M582 200C582 332 490 380 359 419C235 456 211 478 211 513C211 549 243 566 295 566C355 566 401 534 428 483L571 552C529 642 442 712 301 712C170 712 44 653 44 514C44 374 172 327 278 293C383 259 415 233 415 193C415 155 383 135 326 135C261 135 208 169 167 248L30 171C69 65 158 3 271-10L254-89C289-96 304-106 304-123C304-138 296-144 274-144C253-144 221-132 197-120L168-180C199-199 244-213 284-213C359-213 399-175 399-127C399-104 386-72 344-63L360-9C471 4 582 68 582 200Z"  horiz-adv-x="628" vert-adv-y="1158"  />

      
      <glyph glyph-name="uni015F" unicode="&#x015F;" d="M481 158C481 268 405 309 291 338C202 361 184 374 184 400C184 422 206 435 247 435C291 435 327 408 344 378L475 435C443 509 365 564 252 564C135 564 27 506 26 391C27 278 151 237 236 214C299 197 323 187 323 161C323 130 300 116 259 116C218 116 173 134 143 191L12 125C43 42 113-3 211-13L195-90C230-97 245-107 245-124C245-139 237-145 215-145C194-145 162-133 138-121L109-181C140-200 185-214 225-214C300-214 340-176 340-128C340-105 327-73 285-64L301-12C395 0 481 54 481 158Z"  horiz-adv-x="508" vert-adv-y="1158"  />

      
      <glyph glyph-name="uni0160" unicode="&#x0160;" d="M458 874L382 946L309 873L236 946L160 874L309 745ZM571 552C529 642 442 712 301 712C170 712 44 653 44 514C44 374 172 327 278 293C383 259 415 233 415 193C415 155 383 135 326 135C261 135 208 169 167 248L30 171C74 51 182-12 316-12C440-12 582 50 582 200C582 332 490 380 359 419C235 456 211 478 211 513C211 549 243 566 295 566C355 566 401 534 428 483Z"  horiz-adv-x="628" vert-adv-y="1158"  />

      
      <glyph glyph-name="uni0161" unicode="&#x0161;" d="M401 726L325 798L252 725L179 798L103 726L252 597ZM475 435C443 509 365 564 252 564C135 564 27 506 26 391C27 278 151 237 236 214C299 197 323 187 323 161C323 130 300 116 259 116C218 116 173 134 143 191L12 125C48 30 135-15 257-15C366-15 481 38 481 158C481 268 405 309 291 338C202 361 184 374 184 400C184 422 206 435 247 435C291 435 327 408 344 378Z"  horiz-adv-x="508" vert-adv-y="1158"  />

      
      <glyph glyph-name="uni0162" unicode="&#x0162;" d="M30 700L30 555L224 555L224 0L263 0L247-77C282-84 297-94 297-111C297-126 289-132 267-132C246-132 214-120 190-108L161-168C192-187 237-201 277-201C352-201 392-163 392-115C392-92 379-60 337-51L352 0L394 0L394 555L588 555L588 700Z"  horiz-adv-x="618" vert-adv-y="1158"  />

      
      <glyph glyph-name="uni0163" unicode="&#x0163;" d="M363 140L313 140C259 140 243 159 243 224L243 425L348 425L348 550L243 550L243 689L83 659L83 550L27 550L27 425L83 425L83 169C83 76 122 17 212 3L195-77C230-84 245-94 245-111C245-126 237-132 215-132C194-132 162-120 138-108L109-168C140-187 185-201 225-201C300-201 340-163 340-115C340-92 327-60 285-51L300 0L363 0Z"  horiz-adv-x="385" vert-adv-y="1158"  />

      
      <glyph glyph-name="uni0164" unicode="&#x0164;" d="M382 935L309 862L236 935L160 863L309 734L458 863ZM30 700L30 555L224 555L224 0L394 0L394 555L588 555L588 700Z"  horiz-adv-x="618" vert-adv-y="1158"  />

      
      <glyph glyph-name="uni0165" unicode="&#x0165;" d="M299 584L365 584L399 682L399 750L299 750ZM243 425L348 425L348 550L243 550L243 689L83 659L83 550L27 550L27 425L83 425L83 169C83 63 134 0 254 0L363 0L363 140L313 140C259 140 243 159 243 224Z"  horiz-adv-x="385" vert-adv-y="1158"  />

      
      <glyph glyph-name="uni0166" unicode="&#x0166;" d="M588 700L30 700L30 555L224 555L224 413L103 413L103 287L224 287L224 0L394 0L394 287L515 287L515 413L394 413L394 555L588 555Z"  horiz-adv-x="618" vert-adv-y="1158"  />

      
      <glyph glyph-name="uni0167" unicode="&#x0167;" d="M313 140C259 140 243 159 243 224L243 240L350 240L350 356L243 356L243 425L348 425L348 550L243 550L243 689L83 659L83 550L27 550L27 425L83 425L83 356L27 356L27 240L83 240L83 169C83 63 134 0 254 0L363 0L363 140Z"  horiz-adv-x="385" vert-adv-y="1158"  />

      
      <glyph glyph-name="uni0168" unicode="&#x0168;" d="M274 762C288 781 307 796 331 796C370 796 369 739 432 739C474 739 517 767 542 806L490 864C475 846 459 831 435 831C399 831 396 888 335 888C289 888 251 857 222 820ZM519 292C519 201 468 146 380 146C292 146 241 201 241 292L241 700L71 700L73 281C74 101 187-12 380-12C573-12 689 101 689 281L689 700L519 700Z"  horiz-adv-x="760" vert-adv-y="1158"  />

      
      <glyph glyph-name="uni0169" unicode="&#x0169;" d="M204 612C218 631 237 646 261 646C300 646 299 589 362 589C404 589 447 617 472 656L420 714C405 696 389 681 365 681C329 681 326 738 265 738C219 738 181 707 152 670ZM406 225C406 169 367 131 310 131C253 131 214 169 214 225L214 550L54 550L54 219C54 83 158-11 310-11C462-11 563 83 564 219L566 550L406 550Z"  horiz-adv-x="620" vert-adv-y="1158"  />

      
      <glyph glyph-name="uni016A" unicode="&#x016A;" d="M519 760L519 857L241 857L241 760ZM519 292C519 201 468 146 380 146C292 146 241 201 241 292L241 700L71 700L73 281C74 101 187-12 380-12C573-12 689 101 689 281L689 700L519 700Z"  horiz-adv-x="760" vert-adv-y="1158"  />

      
      <glyph glyph-name="uni016B" unicode="&#x016B;" d="M449 610L449 707L171 707L171 610ZM406 225C406 169 367 131 310 131C253 131 214 169 214 225L214 550L54 550L54 219C54 83 158-11 310-11C462-11 563 83 564 219L566 550L406 550Z"  horiz-adv-x="620" vert-adv-y="1158"  />

      
      <glyph glyph-name="uni016C" unicode="&#x016C;" d="M380 732C461 732 514 785 522 875L418 890C417 849 403 827 380 827C357 827 343 849 342 890L238 875C246 785 299 732 380 732ZM519 292C519 201 468 146 380 146C292 146 241 201 241 292L241 700L71 700L73 281C74 101 187-12 380-12C573-12 689 101 689 281L689 700L519 700Z"  horiz-adv-x="760" vert-adv-y="1158"  />

      
      <glyph glyph-name="uni016D" unicode="&#x016D;" d="M310 582C391 582 444 635 452 725L348 740C347 699 333 677 310 677C287 677 273 699 272 740L168 725C176 635 229 582 310 582ZM406 225C406 169 367 131 310 131C253 131 214 169 214 225L214 550L54 550L54 219C54 83 158-11 310-11C462-11 563 83 564 219L566 550L406 550Z"  horiz-adv-x="620" vert-adv-y="1158"  />

      
      <glyph glyph-name="uni016E" unicode="&#x016E;" d="M380 727C449 727 501 778 501 845C501 913 449 964 380 964C311 964 259 913 259 845C259 778 311 727 380 727ZM380 792C352 792 330 815 330 845C330 875 352 898 380 898C408 898 430 875 430 845C430 815 408 792 380 792ZM519 292C519 201 468 146 380 146C292 146 241 201 241 292L241 700L71 700L73 281C74 101 187-12 380-12C573-12 689 101 689 281L689 700L519 700Z"  horiz-adv-x="760" vert-adv-y="1158"  />

      
      <glyph glyph-name="uni016F" unicode="&#x016F;" d="M310 577C379 577 431 628 431 695C431 763 379 814 310 814C241 814 189 763 189 695C189 628 241 577 310 577ZM310 642C282 642 260 665 260 695C260 725 282 748 310 748C338 748 360 725 360 695C360 665 338 642 310 642ZM406 225C406 169 367 131 310 131C253 131 214 169 214 225L214 550L54 550L54 219C54 83 158-11 310-11C462-11 563 83 564 219L566 550L406 550Z"  horiz-adv-x="620" vert-adv-y="1158"  />

      
      <glyph glyph-name="uni0170" unicode="&#x0170;" d="M330 920L264 750L347 750L430 920ZM461 920L395 750L478 750L561 920ZM519 292C519 201 468 146 380 146C292 146 241 201 241 292L241 700L71 700L73 281C74 101 187-12 380-12C573-12 689 101 689 281L689 700L519 700Z"  horiz-adv-x="760" vert-adv-y="1158"  />

      
      <glyph glyph-name="uni0171" unicode="&#x0171;" d="M260 770L194 600L277 600L360 770ZM391 770L325 600L408 600L491 770ZM406 225C406 169 367 131 310 131C253 131 214 169 214 225L214 550L54 550L54 219C54 83 158-11 310-11C462-11 563 83 564 219L566 550L406 550Z"  horiz-adv-x="620" vert-adv-y="1158"  />

      
      <glyph glyph-name="uni0172" unicode="&#x0172;" d="M519 292C519 201 468 146 380 146C292 146 241 201 241 292L241 700L71 700L73 281C74 136 148 34 277 0C233-28 196-75 196-131C196-194 240-240 312-240C377-240 425-208 446-146L382-120C373-138 360-156 334-156C308-156 294-142 294-112C294-81 326-35 380-12C573-12 689 101 689 281L689 700L519 700Z"  horiz-adv-x="760" vert-adv-y="1158"  />

      
      <glyph glyph-name="uni0173" unicode="&#x0173;" d="M406 225C406 169 367 131 310 131C253 131 214 169 214 225L214 550L54 550L54 219C54 106 126 21 238-3C203-32 176-73 176-121C176-184 220-230 292-230C357-230 405-198 426-136L362-110C353-128 340-146 314-146C288-146 274-132 274-102C274-74 300-34 345-9C477 4 563 94 564 219L566 550L406 550Z"  horiz-adv-x="620" vert-adv-y="1158"  />

      
      <glyph glyph-name="uni0174" unicode="&#x0174;" d="M362 806L438 734L511 807L584 734L660 806L511 935ZM831 700L705 312L580 700L442 700L317 312L191 700L8 700L8 690L249 0L368 0L511 419L654 0L773 0L1014 690L1014 700Z"  horiz-adv-x="1022" vert-adv-y="1158"  />

      
      <glyph glyph-name="uni0175" unicode="&#x0175;" d="M264 656L340 584L413 657L486 584L562 656L413 785ZM558 263L449 550L377 550L268 263L176 550L9 550L9 545L206 0L300 0L413 274L525 0L620 0L817 545L817 550L650 550Z"  horiz-adv-x="826" vert-adv-y="1158"  />

      
      <glyph glyph-name="uni0176" unicode="&#x0176;" d="M183 806L259 734L332 807L405 734L481 806L332 935ZM331 449L193 700L2 700L2 694L246 284L246 0L416 0L416 284L662 694L662 700L471 700Z"  horiz-adv-x="664" vert-adv-y="1158"  />

      
      <glyph glyph-name="uni0177" unicode="&#x0177;" d="M346 584L422 656L273 785L124 656L200 584L273 657ZM275 239L177 550L6 550L6 544L202 0L189-44C172-101 136-112 75-95L39-224C184-270 276-244 336-63L536 544L536 550L370 550Z"  horiz-adv-x="544" vert-adv-y="1158"  />

      
      <glyph glyph-name="uni0178" unicode="&#x0178;" d="M243 746C281 746 311 776 311 814C311 852 281 882 243 882C205 882 175 852 175 814C175 776 205 746 243 746ZM421 746C459 746 489 776 489 814C489 852 459 882 421 882C383 882 353 852 353 814C353 776 383 746 421 746ZM331 449L193 700L2 700L2 694L246 284L246 0L416 0L416 284L662 694L662 700L471 700Z"  horiz-adv-x="664" vert-adv-y="1158"  />

      
      <glyph glyph-name="uni0179" unicode="&#x0179;" d="M233 750L369 750L514 900L331 900ZM45 700L45 555L324 555L23 10L23 0L584 0L584 145L283 145L584 690L584 700Z"  horiz-adv-x="624" vert-adv-y="1158"  />

      
      <glyph glyph-name="uni017A" unicode="&#x017A;" d="M184 600L320 600L465 750L282 750ZM33 550L33 415L242 415L22 10L22 0L476 0L476 135L253 135L473 540L473 550Z"  horiz-adv-x="498" vert-adv-y="1158"  />

      
      <glyph glyph-name="uni017B" unicode="&#x017B;" d="M311 746C349 746 379 776 379 814C379 852 349 882 311 882C273 882 243 852 243 814C243 776 273 746 311 746ZM45 700L45 555L324 555L23 10L23 0L584 0L584 145L283 145L584 690L584 700Z"  horiz-adv-x="624" vert-adv-y="1158"  />

      
      <glyph glyph-name="uni017C" unicode="&#x017C;" d="M262 596C300 596 330 626 330 664C330 702 300 732 262 732C224 732 194 702 194 664C194 626 224 596 262 596ZM33 550L33 415L242 415L22 10L22 0L476 0L476 135L253 135L473 540L473 550Z"  horiz-adv-x="498" vert-adv-y="1158"  />

      
      </font>
</defs>
</svg>
